<svg width="24" height="25" viewBox="0 0 24 25" fill="none" xmlns="http://www.w3.org/2000/svg">
<path d="M22.5 4.00659H1.5C0.671573 4.00659 0 4.67817 0 5.50659V19.9611C0 20.7896 0.671573 21.4611 1.5 21.4611H22.5C23.3284 21.4611 24 20.7896 24 19.9611V5.50659C24 4.67816 23.3284 4.00659 22.5 4.00659Z" fill="#3F3F4E"/>
<ellipse cx="8.72798" cy="12.7338" rx="5.45455" ry="5.45455" fill="#EB001A"/>
<circle cx="15.2729" cy="12.7338" r="5.45455" fill="#F79E1C"/>
<path d="M12.0002 17.0979C13.325 16.1028 14.182 14.5185 14.182 12.7339C14.182 10.9493 13.325 9.36503 12.0002 8.36987C10.6754 9.36503 9.81836 10.9493 9.81836 12.7339C9.81836 14.5185 10.6754 16.1028 12.0002 17.0979Z" fill="#FF5F00"/>
</svg>
