<svg width="21" height="22" viewBox="0 0 21 22" fill="none" xmlns="http://www.w3.org/2000/svg">
<path d="M15.5094 5.80452L16.1925 5.12134H15.2264H12.7976C12.7843 5.12134 12.7716 5.11607 12.7622 5.10669C12.7528 5.0973 12.7476 5.08458 12.7476 5.07131C12.7476 5.05805 12.7528 5.04532 12.7622 5.03594C12.7716 5.02656 12.7843 5.02129 12.7976 5.02129H16.3135C16.3268 5.02129 16.3395 5.02656 16.3489 5.03594C16.3583 5.04532 16.3635 5.05805 16.3635 5.07131V8.58723C16.3635 8.6005 16.3583 8.61323 16.3489 8.62261C16.3395 8.63199 16.3268 8.63726 16.3135 8.63726C16.3002 8.63726 16.2875 8.63199 16.2781 8.62261C16.2688 8.61323 16.2635 8.6005 16.2635 8.58723V6.15785V5.19169L15.5803 5.87486L12.1502 9.30496C12.1409 9.31335 12.1288 9.31796 12.1163 9.31786C12.1032 9.31775 12.0906 9.3125 12.0813 9.30323C12.0721 9.29396 12.0668 9.28141 12.0667 9.26829C12.0666 9.25578 12.0711 9.24369 12.0795 9.23441L15.5094 5.80452ZM5.11179 16.344L4.42862 17.0272H5.39477H7.82356C7.83683 17.0272 7.84955 17.0324 7.85893 17.0418C7.86832 17.0512 7.87359 17.0639 7.87359 17.0772C7.87359 17.0905 7.86832 17.1032 7.85893 17.1126C7.84955 17.1219 7.83683 17.1272 7.82356 17.1272H4.30764C4.28014 17.1272 4.25762 17.1047 4.25762 17.0772V13.5613C4.25762 13.5547 4.25891 13.5482 4.26143 13.5421C4.26394 13.5361 4.26762 13.5305 4.27227 13.5259C4.27691 13.5212 4.28243 13.5176 4.2885 13.5151C4.29457 13.5125 4.30107 13.5112 4.30764 13.5112C4.31421 13.5112 4.32072 13.5125 4.32679 13.5151C4.33286 13.5176 4.33837 13.5212 4.34301 13.5259C4.34766 13.5305 4.35134 13.5361 4.35386 13.5421C4.35637 13.5482 4.35767 13.5547 4.35767 13.5613V15.9907V16.9568L5.04084 16.2736L8.47452 12.84L8.47457 12.84L8.47953 12.8349C8.48414 12.8301 8.48966 12.8263 8.49576 12.8236C8.50186 12.821 8.50843 12.8196 8.51507 12.8196C8.52171 12.8195 8.5283 12.8208 8.53445 12.8233C8.54059 12.8258 8.54618 12.8295 8.55088 12.8342C8.55558 12.8389 8.5593 12.8445 8.56182 12.8506C8.56433 12.8568 8.5656 12.8634 8.56555 12.87C8.56549 12.8767 8.56412 12.8832 8.5615 12.8893C8.55888 12.8954 8.55507 12.9009 8.5503 12.9056L8.55026 12.9055L8.54547 12.9103L5.11179 16.344Z" fill="black" stroke="white" stroke-width="0.800392"/>
</svg>
