<svg width="18" height="7" viewBox="0 0 18 7" fill="none" xmlns="http://www.w3.org/2000/svg">
<path d="M3.10105 1.06419C2.33407 1.22985 1.6475 1.65453 1.15678 2.26683C0.666059 2.87913 0.401112 3.64171 0.406481 4.42637L0.398438 5.09935C0.401578 5.40165 0.523063 5.69069 0.736838 5.90446C0.950612 6.11824 1.23965 6.23972 1.54196 6.24286L4.41885 6.22812C4.71913 6.22532 5.00632 6.10479 5.21866 5.89245C5.431 5.68011 5.55153 5.39292 5.55432 5.09264C5.55746 4.79034 5.67895 4.5013 5.89272 4.28752C6.1065 4.07375 6.39554 3.95226 6.69784 3.94912H11.2384C11.3889 3.94805 11.538 3.9769 11.6773 4.03399C11.8165 4.09108 11.943 4.17527 12.0494 4.28167C12.1558 4.38807 12.24 4.51455 12.2971 4.65377C12.3541 4.793 12.383 4.94218 12.3819 5.09264C12.3847 5.39292 12.5052 5.68011 12.7176 5.89245C12.9299 6.10479 13.2171 6.22532 13.5174 6.22812H16.3943C16.6965 6.22464 16.9853 6.10304 17.199 5.88934C17.4127 5.67564 17.5343 5.3868 17.5378 5.0846L17.5298 4.41029C17.5351 3.62579 17.2701 2.8634 16.7793 2.25132C16.2886 1.63925 15.6021 1.21483 14.8352 1.04944C10.9581 0.306717 6.97622 0.311722 3.10105 1.06419Z" stroke="white" stroke-width="0.782007" stroke-linecap="round" stroke-linejoin="round"/>
</svg>
