<svg width="282" height="602" viewBox="0 0 282 602" fill="none" xmlns="http://www.w3.org/2000/svg">
<g clip-path="url(#clip0_431_5510)">
<rect x="3.19434" y="3.26709" width="275.036" height="595.466" rx="12.0161" fill="white"/>
<path d="M20.6031 26.4376H20.6944C21.1142 26.4376 21.4641 26.3829 21.744 26.2734C22.0269 26.1608 22.252 26.0056 22.4193 25.8079C22.5867 25.6101 22.7068 25.3774 22.7798 25.1097C22.8529 24.842 22.8894 24.5514 22.8894 24.2381V23.0927C22.8894 22.8219 22.8605 22.5846 22.8027 22.3808C22.7479 22.1739 22.6688 22.002 22.5654 21.8651C22.465 21.7252 22.3478 21.6202 22.214 21.5502C22.0832 21.4802 21.9417 21.4453 21.7896 21.4453C21.6223 21.4453 21.4717 21.4833 21.3378 21.5593C21.207 21.6324 21.0959 21.7343 21.0047 21.8651C20.9165 21.9929 20.848 22.1435 20.7993 22.3169C20.7537 22.4872 20.7309 22.6698 20.7309 22.8645C20.7309 23.047 20.7522 23.2235 20.7948 23.3938C20.8404 23.5612 20.9073 23.7102 20.9956 23.8411C21.0838 23.9719 21.1948 24.0753 21.3287 24.1514C21.4625 24.2274 21.6192 24.2655 21.7987 24.2655C21.9691 24.2655 22.1258 24.2335 22.2687 24.1696C22.4117 24.1027 22.5365 24.0129 22.6429 23.9004C22.7494 23.7878 22.8331 23.6616 22.8939 23.5216C22.9548 23.3817 22.9882 23.2387 22.9943 23.0927L23.4142 23.2204C23.4142 23.4516 23.3655 23.6798 23.2681 23.9049C23.1738 24.127 23.0415 24.3309 22.8711 24.5164C22.7038 24.699 22.5076 24.845 22.2824 24.9545C22.0603 25.0641 21.8185 25.1188 21.5569 25.1188C21.2405 25.1188 20.9606 25.0595 20.7172 24.9408C20.4768 24.8191 20.2761 24.6549 20.1148 24.448C19.9566 24.2411 19.838 24.0038 19.7589 23.7361C19.6798 23.4684 19.6402 23.187 19.6402 22.8919C19.6402 22.5724 19.6889 22.2728 19.7862 21.9929C19.8836 21.713 20.0251 21.4666 20.2106 21.2536C20.3962 21.0376 20.6214 20.8703 20.886 20.7516C21.1538 20.6299 21.4565 20.5691 21.7942 20.5691C22.1531 20.5691 22.468 20.6391 22.7388 20.779C23.0095 20.9189 23.2377 21.1121 23.4233 21.3586C23.6089 21.605 23.7488 21.891 23.8431 22.2165C23.9374 22.542 23.9846 22.8919 23.9846 23.2661V23.654C23.9846 24.0464 23.9496 24.4252 23.8796 24.7902C23.8097 25.1523 23.6956 25.4884 23.5374 25.7988C23.3822 26.106 23.1769 26.3768 22.9213 26.611C22.6688 26.8423 22.3585 27.0233 21.9904 27.1541C21.6253 27.2819 21.1963 27.3458 20.7035 27.3458H20.6031V26.4376ZM25.2919 26.7571C25.2919 26.5867 25.3497 26.4437 25.4653 26.3281C25.5809 26.2095 25.7376 26.1501 25.9354 26.1501C26.1361 26.1501 26.2928 26.2095 26.4054 26.3281C26.521 26.4437 26.5788 26.5867 26.5788 26.7571C26.5788 26.9274 26.521 27.0704 26.4054 27.186C26.2928 27.3016 26.1361 27.3594 25.9354 27.3594C25.7376 27.3594 25.5809 27.3016 25.4653 27.186C25.3497 27.0704 25.2919 26.9274 25.2919 26.7571ZM25.2965 22.869C25.2965 22.6987 25.3543 22.5557 25.4699 22.4401C25.5855 22.3214 25.7422 22.2621 25.9399 22.2621C26.1407 22.2621 26.2974 22.3214 26.41 22.4401C26.5256 22.5557 26.5834 22.6987 26.5834 22.869C26.5834 23.0394 26.5256 23.1824 26.41 23.298C26.2974 23.4136 26.1407 23.4714 25.9399 23.4714C25.7422 23.4714 25.5855 23.4136 25.4699 23.298C25.3543 23.1824 25.2965 23.0394 25.2965 22.869ZM29.0635 23.4851H29.7206C29.9762 23.4851 30.1876 23.441 30.3549 23.3528C30.5253 23.2645 30.6516 23.1429 30.7337 22.9877C30.8158 22.8325 30.8569 22.6546 30.8569 22.4538C30.8569 22.2439 30.8189 22.0644 30.7428 21.9153C30.6698 21.7632 30.5572 21.6461 30.4051 21.5639C30.2561 21.4818 30.0659 21.4407 29.8347 21.4407C29.64 21.4407 29.4635 21.4802 29.3053 21.5593C29.1502 21.6354 29.027 21.7449 28.9357 21.8879C28.8444 22.0279 28.7988 22.1952 28.7988 22.3899H27.6945C27.6945 22.037 27.7873 21.7236 27.9728 21.4498C28.1584 21.176 28.4109 20.9615 28.7304 20.8064C29.0528 20.6482 29.4149 20.5691 29.8165 20.5691C30.2454 20.5691 30.6196 20.6406 30.9391 20.7836C31.2615 20.9235 31.5125 21.1334 31.692 21.4133C31.8715 21.6932 31.9613 22.04 31.9613 22.4538C31.9613 22.6424 31.9171 22.8341 31.8289 23.0288C31.7407 23.2235 31.6099 23.4014 31.4365 23.5627C31.2631 23.7209 31.0471 23.8502 30.7885 23.9506C30.5299 24.0479 30.2302 24.0966 29.8895 24.0966H29.0635V23.4851ZM29.0635 24.343V23.7407H29.8895C30.2789 23.7407 30.6105 23.7863 30.8843 23.8776C31.1611 23.9688 31.3863 24.0951 31.5597 24.2563C31.7331 24.4145 31.8593 24.5955 31.9384 24.7994C32.0206 25.0032 32.0617 25.2192 32.0617 25.4474C32.0617 25.7577 32.0054 26.0345 31.8928 26.2779C31.7833 26.5183 31.6266 26.7221 31.4228 26.8894C31.2189 27.0567 30.9801 27.183 30.7063 27.2682C30.4356 27.3534 30.1405 27.396 29.821 27.396C29.535 27.396 29.2612 27.3564 28.9996 27.2773C28.738 27.1982 28.5037 27.0811 28.2968 26.9259C28.09 26.7677 27.9257 26.5715 27.804 26.3372C27.6853 26.0999 27.626 25.8261 27.626 25.5158H28.7258C28.7258 25.7136 28.7714 25.8885 28.8627 26.0406C28.957 26.1897 29.0878 26.3068 29.2552 26.392C29.4255 26.4772 29.6202 26.5198 29.8393 26.5198C30.0705 26.5198 30.2698 26.4787 30.4371 26.3966C30.6044 26.3144 30.7322 26.1927 30.8204 26.0315C30.9117 25.8703 30.9573 25.6755 30.9573 25.4474C30.9573 25.1888 30.9071 24.9789 30.8067 24.8176C30.7063 24.6564 30.5633 24.5377 30.3778 24.4617C30.1922 24.3826 29.9731 24.343 29.7206 24.343H29.0635ZM37.5993 23.4258V24.5119C37.5993 25.0321 37.5475 25.4763 37.4441 25.8444C37.3437 26.2095 37.1977 26.5061 37.006 26.7343C36.8144 26.9624 36.5847 27.1298 36.3169 27.2362C36.0523 27.3427 35.7556 27.396 35.4271 27.396C35.1654 27.396 34.9221 27.3625 34.6969 27.2956C34.4748 27.2286 34.2741 27.1237 34.0946 26.9807C33.9151 26.8377 33.7614 26.6536 33.6337 26.4285C33.5089 26.2003 33.4116 25.9281 33.3416 25.6117C33.2747 25.2953 33.2412 24.9287 33.2412 24.5119V23.4258C33.2412 22.9025 33.2929 22.4614 33.3964 22.1024C33.4998 21.7404 33.6473 21.4468 33.839 21.2217C34.0307 20.9935 34.2588 20.8277 34.5235 20.7242C34.7912 20.6208 35.0894 20.5691 35.418 20.5691C35.6826 20.5691 35.926 20.6026 36.1481 20.6695C36.3732 20.7334 36.574 20.8353 36.7505 20.9752C36.93 21.1152 37.0821 21.2977 37.2068 21.5228C37.3346 21.7449 37.4319 22.0142 37.4989 22.3306C37.5658 22.6439 37.5993 23.009 37.5993 23.4258ZM36.4995 24.667V23.2615C36.4995 22.9968 36.4843 22.7641 36.4538 22.5633C36.4234 22.3595 36.3778 22.1876 36.3169 22.0476C36.2591 21.9046 36.1861 21.789 36.0979 21.7008C36.0097 21.6095 35.9093 21.5441 35.7967 21.5046C35.6842 21.462 35.5579 21.4407 35.418 21.4407C35.2476 21.4407 35.0955 21.4742 34.9616 21.5411C34.8278 21.605 34.7152 21.7084 34.6239 21.8514C34.5327 21.9944 34.4627 22.183 34.414 22.4173C34.3684 22.6485 34.3456 22.9299 34.3456 23.2615V24.667C34.3456 24.9348 34.3608 25.1705 34.3912 25.3744C34.4216 25.5782 34.4672 25.7531 34.5281 25.8992C34.5889 26.0421 34.6619 26.1608 34.7471 26.2551C34.8354 26.3464 34.9358 26.4133 35.0483 26.4559C35.1639 26.4985 35.2902 26.5198 35.4271 26.5198C35.6005 26.5198 35.7541 26.4863 35.888 26.4194C36.0218 26.3525 36.1344 26.246 36.2257 26.0999C36.3169 25.9509 36.3854 25.7577 36.431 25.5204C36.4767 25.2831 36.4995 24.9986 36.4995 24.667Z" fill="#1D1B20"/>
<path opacity="0.1" d="M237.139 20.9019C234.87 20.9019 232.884 21.8949 231.465 23.4553L237.139 30.359L242.814 23.4553C241.395 21.8949 239.409 20.9019 237.139 20.9019Z" fill="#1D1B20"/>
<path d="M252.549 20.9019L243.092 30.359H252.549V20.9019V20.9019Z" fill="#1D1B20"/>
<path opacity="0.3" d="M260.504 20.6238H258.501V21.6251H257.5C257.131 21.6251 256.832 21.9614 256.832 22.3761V29.8862C256.832 30.301 257.131 30.6372 257.5 30.6372H261.505C261.874 30.6372 262.173 30.301 262.173 29.8862V22.3761C262.173 21.9614 261.874 21.6251 261.505 21.6251H260.504V20.6238Z" fill="#1D1B20"/>
<path d="M256.832 25.9641C256.832 26.3535 256.832 29.5467 256.832 29.9361C256.832 30.3232 257.131 30.637 257.5 30.637H261.505C261.874 30.637 262.173 30.3232 262.173 29.9361C262.173 29.5467 262.173 26.3535 262.173 25.9641H256.832Z" fill="#1D1B20"/>
<path fill-rule="evenodd" clip-rule="evenodd" d="M140.712 15.2832C136.288 15.2832 132.701 18.8701 132.701 23.294C132.701 27.7178 136.288 31.3047 140.712 31.3047C145.136 31.3047 148.723 27.7178 148.723 23.294C148.723 18.8701 145.136 15.2832 140.712 15.2832Z" fill="#1D1B20"/>
<rect x="104.664" y="588.921" width="72.0968" height="2.67025" rx="1.33513" fill="#202124"/>
</g>
<rect x="1.79477" y="1.86752" width="277.835" height="598.265" rx="13.4157" stroke="#D5E2E1" stroke-width="2.79913"/>
<defs>
<clipPath id="clip0_431_5510">
<rect x="3.19434" y="3.26709" width="275.036" height="595.466" rx="12.0161" fill="white"/>
</clipPath>
</defs>
</svg>
