<svg width="22" height="18" viewBox="0 0 22 18" fill="none" xmlns="http://www.w3.org/2000/svg">
<path fill-rule="evenodd" clip-rule="evenodd" d="M20.4 7.9999C20.4 4.82662 17.448 2.3999 14 2.3999C10.5521 2.3999 7.60002 4.82662 7.60002 7.9999C7.60002 11.1732 10.5521 13.5999 14 13.5999C14.4108 13.5999 14.813 13.5661 15.2031 13.5012C15.9906 14.0666 16.9571 14.3999 18 14.3999C18.1181 14.3999 18.2353 14.3956 18.3515 14.3872C18.5609 14.372 18.7472 14.2485 18.8426 14.0614C18.938 13.8744 18.9287 13.6511 18.8181 13.4727C18.5642 13.0631 18.4131 12.5834 18.4008 12.0678C19.6172 11.0601 20.4 9.61944 20.4 7.9999Z" fill="#09465F"/>
<path fill-rule="evenodd" clip-rule="evenodd" d="M2 9.39932C2 6.22604 4.95204 3.79932 8.4 3.79932C11.848 3.79932 14.8 6.22604 14.8 9.39932C14.8 12.5726 11.848 14.9993 8.4 14.9993C7.98927 14.9993 7.58705 14.9655 7.19694 14.9006C6.40942 15.4661 5.44296 15.7993 4.4 15.7993C4.28189 15.7993 4.16468 15.795 4.04852 15.7866C3.8391 15.7714 3.65286 15.6479 3.55744 15.4609C3.46202 15.2738 3.47132 15.0505 3.58194 14.8721C3.83581 14.4625 3.98697 13.9829 3.99919 13.4672C2.78279 12.4595 2 11.0189 2 9.39932Z" fill="#16A6E3"/>
</svg>
