<svg width="500" height="501" viewBox="0 0 500 501" fill="none" xmlns="http://www.w3.org/2000/svg">
<g clip-path="url(#clip0_154_4339)">
<g opacity="0.25">
<g opacity="0.41">
<path d="M498.027 309.929C498.492 301.937 498.284 293.908 497.382 285.96C493.15 248.608 473.988 213.386 445.784 188.535C435.722 179.668 424.273 171.726 417.724 160.023C406.697 140.314 407.532 117.663 393.846 98.2031C380.143 78.7203 360.175 63.5272 337.656 55.7244C270.513 32.4597 176.511 70.3403 184.975 151.236C185.005 151.526 185.038 151.948 185.075 152.482C186.201 169.285 173.011 183.414 156.227 183.812C94.2786 185.281 40.9549 233.044 29.5448 293.543C22.2064 332.451 34.2225 375.098 62.6836 402.623C83.929 423.168 112.433 434.455 140.953 442.212C198.134 457.763 258.307 461.022 317.266 455.076C372.455 449.51 430.67 433.644 466.363 391.184C485.403 368.532 496.311 339.486 498.027 309.929Z" fill="#45B8E9"/>
</g>
<g opacity="0.31">
<path d="M481.329 54.7741C484.788 43.2333 478.236 31.0735 466.695 27.6146C455.154 24.1556 442.995 30.7072 439.536 42.248C436.077 53.7888 442.628 65.9486 454.169 69.4076C465.71 72.8666 477.87 66.315 481.329 54.7741Z" fill="#45B8E9"/>
</g>
<g opacity="0.31">
<path d="M424.704 25.3804C425.487 29.4953 422.786 33.4663 418.671 34.2493C414.556 35.0322 410.585 32.3306 409.802 28.2158C409.019 24.101 411.721 20.1299 415.836 19.3469C419.952 18.564 423.923 21.2656 424.704 25.3804Z" fill="#45B8E9"/>
</g>
<g opacity="0.31">
<path d="M154.105 70.5084C155.395 65.0455 152.012 59.5713 146.55 58.2813C141.087 56.9914 135.612 60.3742 134.322 65.8371C133.033 71.3 136.415 76.7742 141.878 78.0642C147.341 79.3541 152.815 75.9713 154.105 70.5084Z" fill="#45B8E9"/>
</g>
<g opacity="0.31">
<path d="M53.9408 461.981C56.0445 453.01 50.4771 444.031 41.5055 441.928C32.534 439.824 23.5556 445.391 21.4519 454.363C19.3481 463.335 24.9156 472.313 33.8872 474.417C42.8587 476.52 51.837 470.953 53.9408 461.981Z" fill="#45B8E9"/>
</g>
</g>
<path opacity="0.58" d="M72.638 52.7807C75.3864 52.7807 77.6143 50.5527 77.6143 47.8044C77.6143 45.0561 75.3864 42.8281 72.638 42.8281C69.8897 42.8281 67.6617 45.0561 67.6617 47.8044C67.6617 50.5527 69.8897 52.7807 72.638 52.7807Z" fill="#16A6E3"/>
<path opacity="0.58" d="M7.40733 300.32C7.40733 301.41 6.52376 302.294 5.4334 302.294C4.34304 302.294 3.45947 301.41 3.45947 300.32C3.45947 299.229 4.34304 298.346 5.4334 298.346C6.52376 298.346 7.40733 299.229 7.40733 300.32Z" fill="#16A6E3"/>
<path opacity="0.58" d="M496.294 96.1165C496.294 97.2069 495.41 98.0904 494.32 98.0904C493.229 98.0904 492.346 97.2069 492.346 96.1165C492.346 95.0261 493.229 94.1426 494.32 94.1426C495.41 94.1426 496.294 95.0272 496.294 96.1165Z" fill="#16A6E3"/>
<path opacity="0.58" d="M37.2092 15.554C37.2092 16.6444 36.3256 17.5279 35.2353 17.5279C34.1449 17.5279 33.2614 16.6444 33.2614 15.554C33.2614 14.4636 34.1449 13.5801 35.2353 13.5801C36.3256 13.5801 37.2092 14.4636 37.2092 15.554Z" fill="#14B3A0"/>
<path opacity="0.58" d="M500.242 227.782C500.242 228.872 499.358 229.755 498.268 229.755C497.177 229.755 496.294 228.872 496.294 227.782C496.294 226.691 497.177 225.808 498.268 225.808C499.358 225.808 500.242 226.691 500.242 227.782Z" fill="#14B3A0"/>
<path opacity="0.58" d="M209.337 15.554C209.337 16.6444 208.453 17.5279 207.363 17.5279C206.272 17.5279 205.389 16.6444 205.389 15.554C205.389 14.4636 206.272 13.5801 207.363 13.5801C208.453 13.5801 209.337 14.4636 209.337 15.554Z" fill="#14B3A0"/>
<path opacity="0.58" d="M346.033 22.7794C345.344 26.0073 342.168 28.0642 338.941 27.3753C335.713 26.6863 333.656 23.5103 334.345 20.2835C335.034 17.0555 338.21 14.9987 341.437 15.6876C344.664 16.3766 346.722 19.5514 346.033 22.7794Z" fill="#16A6E3"/>
<g opacity="0.25">
<g opacity="0.47">
<path d="M57.8702 81.3477C52.6385 71.5963 40.4919 67.9316 30.7395 73.1644C20.9882 78.3962 10.549 94.1787 15.7808 103.93C21.0125 113.681 36.5728 106.01 47.639 106.14C63.0732 106.321 63.1031 91.1001 57.8702 81.3477Z" fill="#45B8E9"/>
</g>
<g opacity="0.47">
<path d="M495.775 377.752C502.696 366.745 504.431 353.088 502.99 340.165C501.558 327.324 497.624 313.85 492.129 302.171C486.92 291.103 479.382 281.229 477.233 268.9C474.394 252.611 481.829 236.953 483.555 220.975C486.991 189.165 465.494 161.138 438.826 146.003C417.166 133.711 391.772 129.098 366.87 129.427C344.457 129.722 322.083 133.698 300.365 139.045C279.434 144.197 258.971 150.987 237.032 148.845C218.786 147.064 202.353 139.485 185.36 133.834C144.793 120.343 95.65 118.44 58.5534 138.979C34.7458 152.16 18.0818 173.566 10.6915 196.581C5.2784 213.438 3.67272 232.822 7.63937 249.881C12.097 269.051 20.3322 285.937 18.1581 306.13C16.3733 322.7 10.2868 338.854 10.8242 355.663C11.2864 370.11 16.6984 384.558 25.1117 396.242C25.6557 396.996 26.2341 397.74 26.8854 398.402H472.12C481.441 393.376 490.14 386.713 495.775 377.752Z" fill="#45B8E9"/>
</g>
<g opacity="0.81">
<path d="M438.616 366.721C440.193 354.444 436.501 343.041 436.985 331.109C437.916 308.164 458.996 292.322 466.341 271.696C475.642 245.577 475.195 216.31 463.9 190.859C458.456 178.593 450.504 167.194 439.645 159.311C422.903 147.158 400.968 144.492 380.338 146.034C349.636 148.329 317.239 161.098 286.369 157.615C269.335 155.693 264.133 137.98 255.335 126.296C245.385 113.081 231.834 102.7 216.853 95.7911C189.26 83.0651 156.144 81.8608 127.943 93.4003C97.8344 105.719 71.5917 135.805 73.3168 169.829C74.1152 185.57 80.6729 201.203 77.6373 216.67C73.8266 236.079 58.6047 253.766 47.5739 269.581C35.392 287.047 28.0171 307.874 26.5707 329.123C24.9307 353.215 30.9321 377.764 43.4712 398.4H428.033C433.613 388.681 437.189 377.833 438.616 366.721Z" fill="#45B8E9"/>
</g>
</g>
<path d="M468.301 403.143H30.9842C30.0188 403.143 29.2358 402.36 29.2358 401.395C29.2358 400.429 30.0188 399.647 30.9842 399.647H468.301C469.266 399.647 470.049 400.43 470.049 401.395C470.049 402.36 469.266 403.143 468.301 403.143Z" fill="#233863"/>
<path d="M385.857 293.218H308.942C305.849 293.218 303.334 290.702 303.334 287.61V240.948C303.334 237.223 306.364 234.193 310.089 234.193H365.27C365.823 234.193 366.27 234.641 366.27 235.193C366.27 235.745 365.823 236.193 365.27 236.193H310.088C307.466 236.193 305.333 238.326 305.333 240.948V287.61C305.333 289.599 306.952 291.218 308.941 291.218H385.856C387.845 291.218 389.463 289.599 389.463 287.61V242.167C389.463 238.873 386.783 236.193 383.49 236.193H372.83C372.277 236.193 371.83 235.745 371.83 235.193C371.83 234.641 372.277 234.193 372.83 234.193H383.49C387.887 234.193 391.463 237.77 391.463 242.167V287.61C391.464 290.703 388.948 293.218 385.857 293.218Z" fill="#16A6E3"/>
<path d="M306.986 291.851C306.711 291.851 306.436 291.738 306.239 291.516C305.872 291.103 305.909 290.471 306.321 290.104L337.743 262.15C338.154 261.782 338.789 261.82 339.155 262.232C339.522 262.645 339.485 263.277 339.073 263.644L307.651 291.598C307.46 291.768 307.222 291.851 306.986 291.851Z" fill="#16A6E3"/>
<path d="M387.494 292.624C387.258 292.624 387.021 292.541 386.831 292.372L355.454 264.559C355.041 264.193 355.003 263.561 355.369 263.148C355.735 262.732 356.367 262.697 356.78 263.063L388.157 290.877C388.57 291.243 388.608 291.875 388.242 292.288C388.045 292.51 387.77 292.624 387.494 292.624Z" fill="#16A6E3"/>
<path d="M347.408 269.858C346.368 269.858 345.328 269.532 344.442 268.88L304.657 239.643C304.212 239.316 304.116 238.69 304.443 238.245C304.77 237.801 305.396 237.702 305.841 238.032L345.627 267.269C346.688 268.049 348.115 268.051 349.18 267.276L388.116 238.889C388.562 238.564 389.188 238.663 389.513 239.108C389.839 239.554 389.74 240.18 389.294 240.506L350.358 268.893C349.475 269.536 348.442 269.858 347.408 269.858Z" fill="#16A6E3"/>
<path d="M386.537 227.957C387.367 228.566 388.483 228.57 389.317 227.962L422.408 203.836C421.13 202.257 419.178 201.246 416.988 201.246H357.64C355.809 201.246 354.182 202.104 353.128 203.436C353.166 203.457 353.208 203.463 353.243 203.49L386.537 227.957Z" fill="#14B3A0"/>
<path d="M390.495 229.579C389.727 230.139 388.829 230.417 387.931 230.417C387.028 230.417 386.123 230.135 385.354 229.568L380.301 225.854L354.77 248.568C354.751 248.585 354.727 248.59 354.707 248.605C355.256 248.837 355.86 248.965 356.493 248.965H419.354C419.711 248.965 420.054 248.916 420.388 248.839L394.975 226.312L390.495 229.579Z" fill="#14B3A0"/>
<path d="M378.652 224.643L352.18 205.19C351.991 205.76 351.885 206.367 351.885 207.001V244.358C351.885 245.591 352.376 246.705 353.165 247.532C353.217 247.362 353.297 247.2 353.439 247.074L378.652 224.643Z" fill="#14B3A0"/>
<path d="M422.14 247.72C422.197 247.771 422.23 247.836 422.273 247.896C423.296 247.051 423.962 245.788 423.962 244.358V208.219C423.962 207.278 423.773 206.382 423.435 205.563L396.629 225.107L422.14 247.72Z" fill="#14B3A0"/>
<g opacity="0.69">
<path d="M424.073 341.762H371.87C368.778 341.762 366.263 339.246 366.263 336.154V305.854C366.263 302.129 369.293 299.099 373.018 299.099H421.707C426.103 299.099 429.681 302.675 429.681 307.072V336.154C429.68 339.247 427.164 341.762 424.073 341.762ZM373.017 301.099C370.395 301.099 368.262 303.232 368.262 305.854V336.154C368.262 338.143 369.88 339.762 371.869 339.762H424.072C426.061 339.762 427.679 338.143 427.679 336.154V307.072C427.679 303.779 424.999 301.099 421.705 301.099H373.017Z" fill="white"/>
<path d="M390.878 319.108L368.479 339.049L369.809 340.543L392.208 320.602L390.878 319.108Z" fill="white"/>
<path d="M404.828 319.753L403.502 321.249L425.875 341.081L427.201 339.585L404.828 319.753Z" fill="white"/>
<path d="M397.978 325.103C397.177 325.103 396.376 324.853 395.694 324.351L367.323 303.502L368.506 301.891L396.877 322.74C397.532 323.22 398.413 323.222 399.072 322.744L428.464 301.315L429.642 302.93L400.249 324.359C399.571 324.855 398.774 325.103 397.978 325.103Z" fill="white"/>
</g>
<path d="M423.578 214.017C430.516 214.017 436.14 208.392 436.14 201.455C436.14 194.517 430.516 188.893 423.578 188.893C416.64 188.893 411.016 194.517 411.016 201.455C411.016 208.392 416.64 214.017 423.578 214.017Z" fill="#16A6E3"/>
<path d="M420.797 206.308H419.42V197.995L418.023 198.852V197.428L419.42 196.497H420.797V206.308Z" fill="white"/>
<path d="M423.736 205.674C423.261 205.183 423.024 204.5 423.024 203.623V199.163C423.024 198.281 423.262 197.596 423.739 197.108C424.216 196.62 424.911 196.376 425.824 196.376C426.741 196.376 427.438 196.619 427.912 197.105C428.386 197.591 428.624 198.277 428.624 199.163V203.623C428.624 204.505 428.386 205.19 427.909 205.678C427.432 206.166 426.737 206.41 425.824 206.41C424.906 206.41 424.21 206.165 423.736 205.674ZM426.9 204.719C427.132 204.465 427.248 204.099 427.248 203.623V199.163C427.248 198.686 427.133 198.321 426.904 198.066C426.675 197.812 426.314 197.685 425.824 197.685C425.333 197.685 424.974 197.812 424.744 198.066C424.515 198.32 424.4 198.686 424.4 199.163V203.623C424.4 204.1 424.516 204.466 424.747 204.719C424.979 204.973 425.338 205.1 425.824 205.1C426.31 205.1 426.669 204.974 426.9 204.719Z" fill="white"/>
<path d="M144.787 197.947C144.101 197.947 143.432 197.672 142.935 197.155L134.469 188.367C133.906 187.783 133.119 187.449 132.31 187.449L49.1328 187.352C44.5158 187.352 40.7588 183.595 40.7588 178.978V147.439C40.7588 142.821 44.5158 139.065 49.1338 139.065H137.835C143.093 139.065 147.371 143.342 147.371 148.6V195.367C147.371 196.424 146.737 197.363 145.757 197.759C145.442 197.885 145.113 197.947 144.787 197.947ZM49.1338 141.065C45.6178 141.065 42.7588 143.924 42.7588 147.439V178.978C42.7588 182.493 45.6178 185.352 49.1338 185.352L132.311 185.449C133.661 185.449 134.972 186.007 135.91 186.98L144.375 195.768C144.62 196.023 144.9 195.946 145.01 195.903C145.119 195.859 145.372 195.719 145.372 195.366V148.599C145.372 144.444 141.991 141.064 137.836 141.064H49.1338V141.065Z" fill="#14B3A0"/>
<path d="M124.032 157.713H102.721C102.168 157.713 101.721 157.265 101.721 156.713C101.721 156.161 102.168 155.713 102.721 155.713H124.032C124.585 155.713 125.032 156.161 125.032 156.713C125.032 157.265 124.585 157.713 124.032 157.713Z" fill="#16A6E3"/>
<path d="M89.7448 157.713H57.1218C56.5688 157.713 56.1218 157.265 56.1218 156.713C56.1218 156.161 56.5688 155.713 57.1218 155.713H89.7448C90.2978 155.713 90.7448 156.161 90.7448 156.713C90.7448 157.265 90.2978 157.713 89.7448 157.713Z" fill="#16A6E3"/>
<path d="M124.032 165.307H70.3578C69.8048 165.307 69.3578 164.859 69.3578 164.307C69.3578 163.755 69.8048 163.307 70.3578 163.307H124.033C124.586 163.307 125.033 163.755 125.033 164.307C125.032 164.859 124.585 165.307 124.032 165.307Z" fill="#16A6E3"/>
<path d="M124.032 172.899H88.4678C87.9148 172.899 87.4678 172.451 87.4678 171.899C87.4678 171.347 87.9148 170.899 88.4678 170.899H124.032C124.585 170.899 125.032 171.347 125.032 171.899C125.032 172.451 124.585 172.899 124.032 172.899Z" fill="#16A6E3"/>
<path d="M133.356 144.158H104.46C103.538 144.158 102.655 144.533 102.015 145.198L94.8258 152.661C93.9888 153.53 92.5198 152.937 92.5198 151.731V140.41V112.019C92.5198 108.016 95.7648 104.771 99.7678 104.771H134.507C137.764 104.771 140.405 107.412 140.405 110.669V137.11C140.403 141.003 137.248 144.158 133.356 144.158Z" fill="#16A6E3"/>
<path d="M107.764 125.339C107.764 126.706 106.656 127.813 105.29 127.813C103.923 127.813 102.816 126.705 102.816 125.339C102.816 123.973 103.924 122.865 105.29 122.865C106.656 122.865 107.764 123.973 107.764 125.339Z" fill="white"/>
<path d="M119.36 125.339C119.36 126.706 118.252 127.813 116.886 127.813C115.52 127.813 114.412 126.705 114.412 125.339C114.412 123.973 115.52 122.865 116.886 122.865C118.253 122.865 119.36 123.973 119.36 125.339Z" fill="white"/>
<path d="M128.754 127.813C130.12 127.813 131.228 126.706 131.228 125.339C131.228 123.973 130.12 122.865 128.754 122.865C127.387 122.865 126.28 123.973 126.28 125.339C126.28 126.706 127.387 127.813 128.754 127.813Z" fill="white"/>
<path d="M133.752 243.798C141.637 228.065 135.276 208.919 119.543 201.033C103.811 193.147 84.6644 199.509 76.7787 215.241C68.8931 230.974 75.2543 250.12 90.9869 258.006C106.72 265.891 125.866 259.53 133.752 243.798Z" fill="#14B3A0"/>
<path d="M105.262 247.004C101.744 247.004 98.7868 244.371 98.3828 240.88L98.2528 239.765H112.27L112.14 240.88C111.736 244.372 108.778 247.004 105.262 247.004ZM100.632 241.765C101.324 243.672 103.152 245.004 105.262 245.004C107.371 245.004 109.199 243.672 109.891 241.765H100.632Z" fill="white"/>
<path d="M117.568 235.147H92.9558V223.844C92.9558 217.329 98.2558 212.028 104.77 212.028H105.751C112.266 212.028 117.567 217.328 117.567 223.844L117.568 235.147ZM94.9558 233.147H115.567V223.844C115.567 218.432 111.164 214.028 105.751 214.028H104.77C99.3578 214.028 94.9558 218.431 94.9558 223.844V233.147Z" fill="white"/>
<path d="M116.572 241.764H93.9498C91.6528 241.764 89.7838 239.895 89.7838 237.599V237.311C89.7838 235.015 91.6528 233.146 93.9498 233.146H116.572C118.869 233.146 120.738 235.015 120.738 237.311V237.599C120.738 239.895 118.869 241.764 116.572 241.764ZM93.9558 235.147C92.7558 235.147 91.7838 236.118 91.7838 237.312V237.6C91.7838 238.794 92.7558 239.765 93.9498 239.765H116.572C117.766 239.765 118.738 238.794 118.738 237.6V237.312C118.738 236.118 117.766 235.147 116.572 235.147H93.9558Z" fill="white"/>
<path d="M151.521 62.7051H153.742V74.4771H151.521V62.7051ZM151.521 76.3181H153.742V78.5391H151.521V76.3181Z" fill="white"/>
<path d="M422.589 115.266H317.689C312.114 115.266 307.595 119.785 307.595 125.36V164.9V180.667C307.595 182.347 309.641 183.173 310.807 181.962L320.819 171.569C321.71 170.644 322.94 170.121 324.224 170.121L422.588 170.007C427.405 170.007 431.309 166.102 431.309 161.286V123.988C431.31 119.17 427.405 115.266 422.589 115.266Z" fill="#16A6E3"/>
<path d="M359.215 135.952H334.013C333.46 135.952 333.013 135.504 333.013 134.952C333.013 134.4 333.46 133.952 334.013 133.952H359.215C359.768 133.952 360.215 134.4 360.215 134.952C360.215 135.504 359.768 135.952 359.215 135.952Z" fill="white"/>
<path d="M413.142 135.952H374.561C374.008 135.952 373.561 135.504 373.561 134.952C373.561 134.4 374.008 133.952 374.561 133.952H413.142C413.695 133.952 414.142 134.4 414.142 134.952C414.142 135.504 413.694 135.952 413.142 135.952Z" fill="white"/>
<path d="M397.489 144.934H334.012C333.459 144.934 333.012 144.486 333.012 143.934C333.012 143.382 333.459 142.934 334.012 142.934H397.489C398.042 142.934 398.489 143.382 398.489 143.934C398.489 144.486 398.042 144.934 397.489 144.934Z" fill="white"/>
<path d="M376.072 153.913H334.013C333.46 153.913 333.013 153.465 333.013 152.913C333.013 152.361 333.46 151.913 334.013 151.913H376.072C376.625 151.913 377.072 152.361 377.072 152.913C377.072 153.465 376.624 153.913 376.072 153.913Z" fill="white"/>
<path d="M289.219 117.359H318.445C319.378 117.359 320.271 117.739 320.918 118.41L328.189 125.958C329.036 126.837 330.522 126.238 330.522 125.017V113.567V84.8534C330.522 80.8044 327.24 77.5234 323.192 77.5234H288.057C284.762 77.5234 282.092 80.1944 282.092 83.4884V110.231C282.091 114.168 285.283 117.359 289.219 117.359Z" fill="#14B3A0"/>
<path d="M315.103 98.3262C315.103 99.7082 316.223 100.828 317.605 100.828C318.987 100.828 320.107 99.7082 320.107 98.3262C320.107 96.9442 318.987 95.8242 317.605 95.8242C316.224 95.8232 315.103 96.9442 315.103 98.3262Z" fill="white"/>
<path d="M303.375 98.3262C303.375 99.7082 304.495 100.828 305.877 100.828C307.259 100.828 308.379 99.7082 308.379 98.3262C308.379 96.9442 307.259 95.8242 305.877 95.8242C304.495 95.8232 303.375 96.9442 303.375 98.3262Z" fill="white"/>
<path d="M291.371 98.3262C291.371 99.7082 292.491 100.828 293.873 100.828C295.255 100.828 296.375 99.7082 296.375 98.3262C296.375 96.9442 295.255 95.8242 293.873 95.8242C292.491 95.8232 291.371 96.9442 291.371 98.3262Z" fill="white"/>
<path d="M428.841 129.673H426.704V116.766L424.536 118.097V115.886L426.704 114.44H428.841V129.673Z" fill="white"/>
<g opacity="0.61">
<path d="M292.47 347.872H266.295C265.742 347.872 265.295 347.425 265.295 346.872C265.295 346.319 265.742 345.872 266.295 345.872H292.47C293.023 345.872 293.47 346.319 293.47 346.872C293.47 347.424 293.023 347.872 292.47 347.872Z" fill="white"/>
<path d="M348.479 347.872H308.408C307.855 347.872 307.408 347.425 307.408 346.872C307.408 346.319 307.855 345.872 308.408 345.872H348.478C349.031 345.872 349.478 346.319 349.478 346.872C349.479 347.424 349.031 347.872 348.479 347.872Z" fill="white"/>
<path d="M332.223 357.198H266.295C265.742 357.198 265.295 356.751 265.295 356.198C265.295 355.645 265.742 355.198 266.295 355.198H332.223C332.776 355.198 333.223 355.645 333.223 356.198C333.223 356.75 332.776 357.198 332.223 357.198Z" fill="white"/>
<path d="M309.977 366.525H266.295C265.742 366.525 265.295 366.078 265.295 365.525C265.295 364.972 265.742 364.525 266.295 364.525H309.977C310.53 364.525 310.977 364.972 310.977 365.525C310.977 366.078 310.53 366.525 309.977 366.525Z" fill="white"/>
<path d="M123.768 333.114H56.1218C55.5688 333.114 55.1218 332.667 55.1218 332.114C55.1218 331.561 55.5688 331.114 56.1218 331.114H123.768C124.321 331.114 124.768 331.561 124.768 332.114C124.768 332.667 124.321 333.114 123.768 333.114Z" fill="white"/>
<path d="M123.768 312.211H56.1218C55.5688 312.211 55.1218 311.764 55.1218 311.211C55.1218 310.658 55.5688 310.211 56.1218 310.211H123.768C124.321 310.211 124.768 310.658 124.768 311.211C124.768 311.764 124.321 312.211 123.768 312.211Z" fill="white"/>
<path d="M123.768 322.663H87.2979C86.7449 322.663 86.2979 322.216 86.2979 321.663C86.2979 321.11 86.7449 320.663 87.2979 320.663H123.768C124.321 320.663 124.768 321.11 124.768 321.663C124.768 322.216 124.321 322.663 123.768 322.663Z" fill="white"/>
<path d="M123.768 301.127H87.2979C86.7449 301.127 86.2979 300.68 86.2979 300.127C86.2979 299.574 86.7449 299.127 87.2979 299.127H123.768C124.321 299.127 124.768 299.574 124.768 300.127C124.768 300.68 124.321 301.127 123.768 301.127Z" fill="white"/>
<path d="M123.768 291.152H99.1719C98.6189 291.152 98.1719 290.705 98.1719 290.152C98.1719 289.599 98.6189 289.152 99.1719 289.152H123.768C124.321 289.152 124.768 289.599 124.768 290.152C124.768 290.705 124.321 291.152 123.768 291.152Z" fill="white"/>
</g>
<path d="M273.183 139.935C273.154 139.922 273.078 139.921 273.097 139.896C285.349 123.559 270.014 101.87 256.655 100.53C252.102 94.8566 245.997 90.2696 238.577 87.5246C234.649 86.0716 230.613 85.2706 226.592 85.0536C226.519 74.9406 218.305 66.7646 208.175 66.7646C198 66.7646 189.752 75.0126 189.752 85.1876C189.752 89.9196 191.551 94.2206 194.484 97.4836C191.517 100.491 188.97 103.981 186.998 107.911C186.532 108.84 186.117 109.78 185.726 110.724C170.778 110.22 157.935 121.54 156.754 136.6C155.919 147.253 161.134 156.983 169.511 162.415C164.426 165.096 161.208 168.789 160.873 173.065C160.483 178.04 164.076 182.843 170.169 186.559C168.907 189.102 168.203 191.909 168.203 194.862C168.203 206.313 178.726 215.596 191.706 215.596C200.479 215.596 208.125 211.352 212.162 205.067C214.966 206.889 218.064 208.57 221.412 210.027C238.708 217.554 255.904 216.359 259.821 207.358C260.881 204.922 260.852 202.163 259.914 199.287C260.955 199.112 261.977 198.876 262.973 198.558C297.923 187.396 302.637 153.273 273.183 139.935Z" fill="#233863"/>
<path d="M279.761 289.037L277.424 282.443L294.957 272.445L295.509 272.13V270.417C295.509 238.197 274.804 212.077 249.263 212.077H222.149L222.499 212.723L174.681 213.109C162.759 213.205 152.653 221.769 148.719 233.743L115.037 308.924L119.884 309.517L147.508 312.897L148.132 389.319L266.566 389.35L270.476 326.986L274.928 319.713L277.074 316.207C281.942 308.254 282.953 298.039 279.761 289.037Z" fill="#14B3A0"/>
<path d="M180.716 317.302L152.667 314.031C152.393 313.999 152.196 313.751 152.228 313.476C152.26 313.201 152.515 313.013 152.783 313.037L179.945 316.204L187.657 282.922C187.72 282.654 187.988 282.486 188.258 282.548C188.527 282.611 188.695 282.879 188.632 283.149L180.716 317.302Z" fill="#374081"/>
<path d="M209.991 245.705C193.635 245.705 180.329 232.399 180.329 216.043V212.696C180.329 212.295 180.653 211.971 181.054 211.971C181.455 211.971 181.779 212.295 181.779 212.696V216.043C181.779 231.599 194.435 244.255 209.991 244.255C225.547 244.255 238.202 231.599 238.202 216.043V212.696C238.202 212.295 238.526 211.971 238.927 211.971C239.328 211.971 239.652 212.295 239.652 212.696V216.043C239.651 232.399 226.346 245.705 209.991 245.705Z" fill="#233863"/>
<path d="M190.191 229.563C189.959 229.563 189.731 229.451 189.591 229.245C186.831 225.169 185.372 220.403 185.372 215.461V212.697C185.372 212.296 185.696 211.972 186.097 211.972C186.497 211.972 186.822 212.296 186.822 212.697V215.461C186.822 220.111 188.195 224.598 190.792 228.433C191.017 228.764 190.929 229.214 190.598 229.439C190.473 229.523 190.331 229.563 190.191 229.563Z" fill="#233863"/>
<path d="M209.991 240.078C204.351 240.078 199.047 238.224 194.651 234.716C194.338 234.467 194.286 234.011 194.536 233.698C194.788 233.384 195.244 233.337 195.554 233.583C199.691 236.883 204.684 238.628 209.991 238.628C215.291 238.628 220.278 236.887 224.414 233.594C224.725 233.342 225.184 233.396 225.432 233.709C225.683 234.022 225.63 234.477 225.317 234.727C220.923 238.228 215.623 240.078 209.991 240.078Z" fill="#233863"/>
<path d="M230.782 227.968C230.66 227.968 230.537 227.938 230.424 227.873C230.076 227.676 229.954 227.233 230.152 226.885C232.119 223.419 233.159 219.469 233.159 215.46V212.696C233.159 212.295 233.483 211.971 233.884 211.971C234.285 211.971 234.609 212.295 234.609 212.696V215.46C234.609 219.72 233.504 223.917 231.412 227.601C231.279 227.836 231.034 227.968 230.782 227.968Z" fill="#233863"/>
<path d="M280.514 409.561L261.833 381.469C257.573 376.007 255.122 369.385 250.157 368.033L246.811 367.181L246.832 367.128L163.047 346.308L169.959 315.644L119.885 309.518L104.421 360.523C103.411 364.92 103.46 369.313 104.399 373.436C106.807 386.32 117.982 396.495 131.976 396.74L220.317 396.519C229.492 406.126 258.18 425.796 258.18 425.796C259.531 426.972 261.599 426.829 262.775 425.477C263.543 424.594 263.738 423.409 263.412 422.362C263.559 422.335 263.647 422.317 263.647 422.317C263.739 422.343 263.815 422.354 263.905 422.378L265.13 423.567C266.552 424.948 268.846 424.914 270.226 423.491L270.314 423.401C270.933 422.763 271.252 421.948 271.305 421.121L271.331 421.148C272.717 422.565 275.01 422.591 276.428 421.205L276.518 421.117C277.935 419.731 277.961 417.438 276.575 416.02L276.23 415.667C276.182 415.538 276.132 415.412 276.081 415.289C277.441 416.055 279.2 415.889 280.369 414.745L280.459 414.657C281.874 413.272 281.9 410.978 280.514 409.561Z" fill="#FFBA94"/>
<path d="M276.358 415.824C276.228 415.824 276.098 415.774 276.001 415.674L264.89 404.31C264.697 404.113 264.701 403.796 264.898 403.603C265.097 403.412 265.414 403.413 265.605 403.611L276.716 414.975C276.909 415.172 276.906 415.489 276.708 415.682C276.61 415.776 276.484 415.824 276.358 415.824Z" fill="#FB8E77"/>
<path d="M270.456 420.28C270.326 420.28 270.196 420.23 270.099 420.13L258.988 408.766C258.795 408.569 258.799 408.252 258.996 408.059C259.195 407.868 259.512 407.87 259.703 408.067L270.814 419.431C271.007 419.628 271.003 419.945 270.806 420.138C270.708 420.232 270.582 420.28 270.456 420.28Z" fill="#FB8E77"/>
<path d="M263.44 422.603C263.315 422.603 263.19 422.556 263.093 422.463L251.644 411.439C251.445 411.248 251.439 410.931 251.63 410.732C251.823 410.534 252.14 410.529 252.337 410.718L263.786 421.742C263.985 421.933 263.991 422.25 263.8 422.449C263.701 422.551 263.571 422.603 263.44 422.603Z" fill="#FB8E77"/>
<path d="M171.435 348.892C171.384 348.892 171.332 348.884 171.282 348.868L145.495 340.581C145.232 340.497 145.088 340.216 145.173 339.952C145.256 339.689 145.54 339.545 145.802 339.63L171.589 347.917C171.852 348.001 171.996 348.282 171.911 348.546C171.843 348.757 171.647 348.892 171.435 348.892Z" fill="#FB8E77"/>
<path d="M234.022 126.002C229.099 126.741 224.43 131.292 220.689 136.294C220.11 137.067 219.477 137.775 218.798 138.416C213.789 143.142 206.517 143.604 200.857 140.509L199.479 140.264C193.34 139.17 187.478 143.26 186.384 149.399L186.347 149.608C185.253 155.747 189.343 161.609 195.482 162.703L198.258 163.198L197.527 167.301C197.087 169.773 196.968 172.228 197.135 174.624L190.686 210.822C188.819 221.301 195.8 231.309 206.279 233.176C216.758 235.043 226.766 228.062 228.633 217.583L231.209 203.126C245.435 203.187 258.072 193.032 260.652 178.547L261.146 175.773L267.269 141.406C260.377 140.555 235.99 136.79 234.022 126.002Z" fill="#FFBA94"/>
<path opacity="0.46" d="M226.566 199.894L226.013 199.796C211.094 197.138 200.758 183.811 201.459 169.067C201.574 166.654 200.369 164.371 198.257 163.198L197.526 167.301C195.913 176.356 198.574 185.182 204.06 191.714L228.35 219.37L231.198 203.384L230.599 203.126C245.072 203.485 258.034 193.238 260.651 178.547L261.145 175.773C258.257 191.983 242.775 202.782 226.566 199.894Z" fill="#FB8E77"/>
<path d="M231.197 192.088C231.065 192.088 230.932 192.035 230.835 191.932C230.646 191.732 230.653 191.416 230.853 191.226C230.881 191.199 233.719 188.556 237.057 190.311C237.301 190.439 237.396 190.742 237.267 190.986C237.139 191.232 236.835 191.324 236.592 191.196C233.894 189.778 231.636 191.862 231.541 191.951C231.444 192.042 231.321 192.088 231.197 192.088Z" fill="#FB8E77"/>
<path d="M239.273 159.176C239.093 160.189 238.125 160.864 237.112 160.683C236.099 160.503 235.424 159.535 235.605 158.522C235.786 157.509 236.753 156.834 237.766 157.015C238.778 157.196 239.453 158.163 239.273 159.176Z" fill="#233863"/>
<path d="M261.321 163.103C261.14 164.116 260.173 164.791 259.16 164.61C258.147 164.43 257.472 163.462 257.653 162.449C257.833 161.436 258.801 160.761 259.814 160.942C260.826 161.123 261.501 162.09 261.321 163.103Z" fill="#233863"/>
<path d="M243.413 173.269C242.501 173.269 241.433 173.105 240.186 172.695C239.923 172.609 239.781 172.326 239.868 172.064C239.955 171.801 240.237 171.659 240.499 171.745C244.703 173.13 246.501 171.403 247.077 170.596C247.182 170.449 247.224 170.267 247.197 170.084L245.051 155.994C245.009 155.721 245.197 155.466 245.47 155.425C245.738 155.383 245.998 155.57 246.039 155.844L248.185 169.935C248.252 170.376 248.148 170.817 247.891 171.177C247.368 171.909 246.041 173.269 243.413 173.269Z" fill="#FB8E77"/>
<path d="M229.242 184.082L225.381 181.853C220.598 179.092 218.959 172.976 221.721 168.193L222.006 167.7L236.68 176.172L232.638 183.173C231.951 184.361 230.431 184.768 229.242 184.082Z" fill="white"/>
<path d="M231.552 168.074C225.118 168.074 219.882 162.844 219.874 156.409C219.867 149.97 225.101 144.726 231.54 144.719C231.544 144.719 231.549 144.719 231.553 144.719C234.667 144.719 237.596 145.93 239.801 148.131C242.009 150.335 243.227 153.266 243.23 156.385C243.237 162.824 238.003 168.068 231.565 168.074C231.561 168.074 231.556 168.074 231.552 168.074ZM221.874 156.407C221.88 161.74 226.221 166.074 231.552 166.074C231.556 166.074 231.559 166.074 231.563 166.074C236.899 166.069 241.235 161.723 241.23 156.386C241.227 153.801 240.218 151.372 238.388 149.546C236.561 147.723 234.134 146.719 231.553 146.719C231.549 146.719 231.546 146.719 231.542 146.719C226.206 146.725 221.869 151.07 221.874 156.407Z" fill="white"/>
<path d="M258.105 173.243C251.672 173.243 246.435 168.013 246.427 161.578C246.42 155.139 251.654 149.895 258.092 149.889C258.096 149.889 258.101 149.889 258.105 149.889C264.539 149.889 269.775 155.119 269.783 161.554C269.79 167.993 264.556 173.237 258.117 173.244C258.112 173.243 258.109 173.243 258.105 173.243ZM248.427 161.575C248.433 166.908 252.774 171.242 258.105 171.242C258.109 171.242 258.111 171.242 258.115 171.242C263.451 171.236 267.788 166.89 267.783 161.554C267.777 156.221 263.436 151.887 258.105 151.887C258.101 151.887 258.098 151.887 258.094 151.887C252.758 151.893 248.422 156.239 248.427 161.575Z" fill="white"/>
<path d="M247.123 160.265C247.091 160.265 247.059 160.264 247.025 160.26L242.866 159.855C242.316 159.802 241.914 159.312 241.968 158.763C242.021 158.213 242.505 157.805 243.06 157.865L247.219 158.27C247.769 158.323 248.171 158.813 248.117 159.362C248.068 159.878 247.632 160.265 247.123 160.265Z" fill="white"/>
<path d="M230.015 140.836C230.652 141.071 231.454 140.949 232.235 140.877C233.02 140.788 233.811 140.717 234.5 140.681C235.191 140.644 235.985 140.629 236.776 140.634C237.561 140.622 238.375 140.655 238.974 140.353C239.553 140.07 239.756 139.339 239.006 138.495C238.301 137.671 236.527 136.829 234.241 136.946C231.958 137.075 230.313 138.102 229.727 138.995C229.101 139.914 229.402 140.617 230.015 140.836Z" fill="#233863"/>
<path d="M264.458 146.702C263.779 146.693 263.074 146.292 262.371 145.944C261.67 145.578 260.957 145.229 260.327 144.947C259.696 144.664 258.96 144.364 258.221 144.084C257.493 143.79 256.721 143.529 256.27 143.033C255.831 142.561 255.905 141.806 256.908 141.287C257.862 140.771 259.82 140.624 261.911 141.555C263.995 142.495 265.162 144.043 265.388 145.088C265.643 146.17 265.109 146.719 264.458 146.702Z" fill="#233863"/>
<path d="M193.375 154.706C193.152 154.706 192.949 154.556 192.891 154.33C192.823 154.062 192.984 153.79 193.251 153.721L196.814 152.805L195.196 146.832C195.124 146.565 195.281 146.291 195.547 146.219C195.818 146.143 196.088 146.304 196.16 146.571L198.044 153.523L193.498 154.691C193.458 154.701 193.416 154.706 193.375 154.706Z" fill="#FB8E77"/>
<path d="M320.525 254.219H292.97C290.273 254.219 288.086 252.033 288.086 249.336V196.378C288.086 193.681 290.272 191.495 292.97 191.495H320.525C323.222 191.495 325.408 193.681 325.408 196.378V249.336C325.409 252.032 323.222 254.219 320.525 254.219Z" fill="#233863"/>
<path d="M344.127 300.459L341.062 244.87L341.789 238.125C342.806 228.689 340.024 219.255 334.12 211.825C333.558 211.118 333.003 210.415 332.452 209.75V200.679C332.452 198.699 330.847 197.094 328.867 197.094C326.957 197.094 325.409 198.642 325.409 200.552V203.995C325.409 210.542 320.107 215.851 313.56 215.86L303.211 215.874L287.724 214.551C285.71 214.379 283.921 215.886 283.749 217.901C283.608 219.554 284.606 221.04 286.08 221.62C285.944 221.661 285.807 221.705 285.668 221.754L285.237 221.717C283.223 221.545 281.434 223.052 281.262 225.067C281.09 227.081 282.597 228.87 284.611 229.042L284.62 229.043C283.99 229.622 283.547 230.41 283.445 231.322C283.221 233.331 284.681 235.159 286.69 235.383L288.316 235.565C288.391 235.619 288.46 235.672 288.539 235.727C288.539 235.727 288.581 235.807 288.654 235.938C287.637 236.351 286.843 237.258 286.65 238.415C286.354 240.186 287.56 241.877 289.331 242.173C289.331 242.173 300.72 245.923 305.637 247.309L301.473 268.872L300.585 273.47L294.956 272.445L277.423 282.443L279.76 289.037C282.951 298.039 281.941 308.255 277.072 316.208L274.926 319.714L283.491 323.232C294.304 327.673 309.948 332.292 321.535 329.542C325.294 328.65 328.208 327.571 330.473 326.296C338.817 321.939 344.619 311.995 344.127 300.459Z" fill="#FFBA94"/>
<path d="M301.724 223.289C301.709 223.289 301.695 223.288 301.68 223.287L285.808 221.932C285.534 221.909 285.329 221.666 285.353 221.392C285.376 221.117 285.631 220.914 285.894 220.936L301.766 222.291C302.04 222.314 302.244 222.557 302.221 222.831C302.198 223.092 301.981 223.289 301.724 223.289Z" fill="#FB8E77"/>
<path d="M302.036 230.694C302.021 230.694 302.007 230.693 301.992 230.692L286.12 229.337C285.846 229.314 285.641 229.071 285.665 228.797C285.688 228.522 285.938 228.317 286.206 228.341L302.078 229.696C302.352 229.719 302.556 229.962 302.533 230.236C302.511 230.497 302.293 230.694 302.036 230.694Z" fill="#FB8E77"/>
<path d="M304.661 238.082C304.641 238.082 304.622 238.081 304.602 238.079L288.778 236.245C288.504 236.213 288.307 235.965 288.339 235.691C288.371 235.416 288.628 235.221 288.894 235.252L304.718 237.086C304.992 237.118 305.189 237.366 305.157 237.64C305.127 237.895 304.911 238.082 304.661 238.082Z" fill="#FB8E77"/>
<path d="M294.1 300.111C294.063 300.111 294.024 300.107 293.985 300.097C293.716 300.033 293.55 299.765 293.614 299.495L301.549 265.845C301.612 265.578 301.873 265.406 302.151 265.474C302.419 265.538 302.585 265.806 302.522 266.076L294.586 299.726C294.532 299.956 294.327 300.111 294.1 300.111Z" fill="#FB8E77"/>
<path d="M277.187 283.152L267.079 259.759C266.97 259.506 267.086 259.211 267.34 259.102C267.592 258.991 267.887 259.108 267.997 259.363L277.662 281.73L295.262 271.694C295.501 271.56 295.807 271.641 295.945 271.881C296.082 272.121 295.998 272.427 295.759 272.564L277.187 283.152Z" fill="#374081"/>
</g>
<defs>
<clipPath id="clip0_154_4339">
<rect width="500" height="500" fill="white" transform="translate(0.0078125 0.271484)"/>
</clipPath>
</defs>
</svg>
