<svg width="500" height="501" viewBox="0 0 500 501" fill="none" xmlns="http://www.w3.org/2000/svg">
<path d="M74.3899 333.68H216.28L431.85 403.26" stroke="#263238" stroke-linecap="round" stroke-linejoin="round"/>
<path d="M139 328.4H129.2V166.34H149.43L140.7 134.83H114.5L105.77 166.34H126V328.4H116.17C113.656 328.402 111.244 329.39 109.451 331.151C107.658 332.913 106.627 335.307 106.58 337.82C106.58 337.82 106.58 337.87 106.58 337.89C106.58 337.89 106.58 337.95 106.58 337.97C106.87 340.23 116.15 342.05 127.58 342.05C139.01 342.05 148.29 340.23 148.58 337.97C148.572 335.433 147.56 333.002 145.765 331.208C143.969 329.415 141.537 328.405 139 328.4Z" fill="#084B43"/>
<path d="M269.59 95.3597V286.18L413.26 309.82V71.7197L269.59 95.3597ZM409.53 150L336.53 154.14V87.8397L409.53 76.2197V150ZM336.53 161.11L409.53 157.76V224.42L336.53 221.01V161.11ZM330.61 220.73L272 218V164.07L330.56 161.39L330.61 220.73ZM330.61 88.7797V154.5L272 157.79V98.0997L330.61 88.7797ZM272 224.28L330.56 227.65V292.76L272 283.44V224.28ZM336.48 293.7V227.99L409.48 232.19V305.32L336.48 293.7Z" fill="#263238" stroke="#263238" stroke-linecap="round" stroke-linejoin="round"/>
<path d="M220.04 426.45C283.525 426.45 334.99 410.417 334.99 390.64C334.99 370.862 283.525 354.83 220.04 354.83C156.555 354.83 105.09 370.862 105.09 390.64C105.09 410.417 156.555 426.45 220.04 426.45Z" fill="#62CCBF"/>
<path opacity="0.5" d="M220.04 426.45C283.525 426.45 334.99 410.417 334.99 390.64C334.99 370.862 283.525 354.83 220.04 354.83C156.555 354.83 105.09 370.862 105.09 390.64C105.09 410.417 156.555 426.45 220.04 426.45Z" fill="white"/>
<path d="M210.33 232.741C210.33 232.741 184.28 229.651 167.14 243.021C150 256.391 135.26 312.261 135.6 339.021C135.94 365.781 145.89 379.131 170.91 390.091C195.93 401.051 242.54 396.951 268.59 388.721C294.64 380.491 303.21 351.721 302.87 336.281C302.53 320.841 285.39 303.031 279.56 299.281C273.73 295.531 257.28 287.631 249.06 275.281C240.84 262.931 228.83 236.171 210.33 232.741Z" fill="#62CCBF"/>
<mask id="mask0_444_4182" style="mask-type:luminance" maskUnits="userSpaceOnUse" x="135" y="232" width="168" height="165">
<path d="M210.33 232.741C210.33 232.741 184.28 229.651 167.14 243.021C150 256.391 135.26 312.261 135.6 339.021C135.94 365.781 145.89 379.131 170.91 390.091C195.93 401.051 242.54 396.951 268.59 388.721C294.64 380.491 303.21 351.721 302.87 336.281C302.53 320.841 285.39 303.031 279.56 299.281C273.73 295.531 257.28 287.631 249.06 275.281C240.84 262.931 228.83 236.171 210.33 232.741Z" fill="white"/>
</mask>
<g mask="url(#mask0_444_4182)">
<path opacity="0.13" d="M273.37 386.87C263.52 385.54 251.84 382.87 243 377.5C224.33 366.17 219.67 344.83 213 336.83C206.33 328.83 194.33 329.5 189 320.83C183.67 312.16 192.33 248.17 177 244.17C173.889 243.271 170.668 242.81 167.43 242.8C167.34 242.88 167.23 242.94 167.14 243.02C150 256.39 135.26 312.26 135.6 339.02C135.94 365.78 145.89 379.13 170.91 390.09C195.93 401.05 242.54 396.95 268.59 388.72C270.22 388.203 271.817 387.585 273.37 386.87Z" fill="black"/>
</g>
<path d="M210.33 232.741C210.33 232.741 184.28 229.651 167.14 243.021C150 256.391 135.26 312.261 135.6 339.021C135.94 365.781 145.89 379.131 170.91 390.091C195.93 401.051 242.54 396.951 268.59 388.721C294.64 380.491 303.21 351.721 302.87 336.281C302.53 320.841 285.39 303.031 279.56 299.281C273.73 295.531 257.28 287.631 249.06 275.281C240.84 262.931 228.83 236.171 210.33 232.741Z" stroke="#263238" stroke-linecap="round" stroke-linejoin="round"/>
<path d="M200.07 244.82C200.07 244.82 183.07 248.07 180.07 251.07C177.07 254.07 164.57 301.07 164.57 301.07C168.045 300.224 171.691 300.397 175.07 301.57C180.07 303.57 180.57 308.82 181.07 311.32C181.472 314.305 181.722 317.309 181.82 320.32C181.82 320.32 232.35 315.81 243.1 313.32C253.85 310.83 270.21 309.67 270.21 309.67C270.21 309.67 242.57 247.33 238.32 245.08C234.07 242.83 216.32 242.58 213.82 243.08C211.32 243.58 200.07 244.82 200.07 244.82Z" fill="#263238" stroke="#263238" stroke-linecap="round" stroke-linejoin="round"/>
<path d="M183.32 302.57L187.57 267.82" stroke="white" stroke-linecap="round" stroke-linejoin="round"/>
<path d="M186.57 277.071L192.32 269.571" stroke="white" stroke-linecap="round" stroke-linejoin="round"/>
<path d="M203.82 281.57C203.82 281.57 220.07 276.32 230.82 276.32" stroke="white" stroke-linecap="round" stroke-linejoin="round"/>
<path d="M219.16 267.24L218.07 275.57C218.07 275.57 220.82 275.57 221.07 276.82C221.087 277.283 221.007 277.745 220.835 278.176C220.663 278.607 220.402 278.996 220.07 279.32C220.07 279.32 227.82 283.57 228.82 288.57" stroke="white" stroke-linecap="round" stroke-linejoin="round"/>
<path d="M209.4 235.5C209.4 235.5 200.07 238.5 198.73 240.83C197.39 243.16 198.4 259.5 198.4 261.5C198.4 263.5 199.57 260.33 200.57 258C201.57 255.67 205.07 252.16 206.23 252.5C207.39 252.84 208.07 254.16 208.07 256.33C208.07 258.5 210.73 261.5 213.07 263.16C215.41 264.82 217.57 266.5 217.57 266.5C217.57 266.5 222.4 259.5 223.57 257.66C224.74 255.82 224.57 252 224.73 250.66C224.89 249.32 227.9 254.33 228.57 253C229.24 251.67 227.07 250.5 224.73 246.83C222.39 243.16 223.07 239.33 219.57 236.66C216.07 233.99 212.07 234.82 209.4 235.5Z" fill="white"/>
<mask id="mask1_444_4182" style="mask-type:luminance" maskUnits="userSpaceOnUse" x="198" y="234" width="31" height="33">
<path d="M209.4 235.501C209.4 235.501 200.07 238.501 198.73 240.831C197.39 243.161 198.4 259.501 198.4 261.501C198.4 263.501 199.57 260.331 200.57 258.001C201.57 255.671 205.07 252.161 206.23 252.501C207.39 252.841 208.07 254.161 208.07 256.331C208.07 258.501 210.73 261.501 213.07 263.161C215.41 264.821 217.57 266.501 217.57 266.501C217.57 266.501 222.4 259.501 223.57 257.661C224.74 255.821 224.57 252.001 224.73 250.661C224.89 249.321 227.9 254.331 228.57 253.001C229.24 251.671 227.07 250.501 224.73 246.831C222.39 243.161 223.07 239.331 219.57 236.661C216.07 233.991 212.07 234.821 209.4 235.501Z" fill="white"/>
</mask>
<g mask="url(#mask1_444_4182)">
<path d="M198.73 240.821C197.85 242.381 197.99 250.161 198.19 255.821C200.32 253.081 204.71 247.901 207.25 248.881C210.49 250.131 211.73 259.341 211.73 259.341L209.54 235.501H209.4C209.4 235.501 200.07 238.501 198.73 240.821Z" fill="#62CCBF"/>
<path opacity="0.5" d="M198.73 240.821C197.85 242.381 197.99 250.161 198.19 255.821C200.32 253.081 204.71 247.901 207.25 248.881C210.49 250.131 211.73 259.341 211.73 259.341L209.54 235.501H209.4C209.4 235.501 200.07 238.501 198.73 240.821Z" fill="white"/>
</g>
<path d="M209.4 235.5C209.4 235.5 200.07 238.5 198.73 240.83C197.39 243.16 198.4 259.5 198.4 261.5C198.4 263.5 199.57 260.33 200.57 258C201.57 255.67 205.07 252.16 206.23 252.5C207.39 252.84 208.07 254.16 208.07 256.33C208.07 258.5 210.73 261.5 213.07 263.16C215.41 264.82 217.57 266.5 217.57 266.5C217.57 266.5 222.4 259.5 223.57 257.66C224.74 255.82 224.57 252 224.73 250.66C224.89 249.32 227.9 254.33 228.57 253C229.24 251.67 227.07 250.5 224.73 246.83C222.39 243.16 223.07 239.33 219.57 236.66C216.07 233.99 212.07 234.82 209.4 235.5Z" stroke="#263238" stroke-linecap="round" stroke-linejoin="round"/>
<path d="M187.32 303.07C187.32 303.07 181.57 294.82 174.57 294.07C167.57 293.32 159.07 299.07 158.82 301.07C158.57 303.07 156.82 313.82 158.07 315.32C159.32 316.82 164.07 318.07 173.32 315.07C182.57 312.07 186.32 308.32 187.32 303.07Z" fill="white"/>
<mask id="mask2_444_4182" style="mask-type:luminance" maskUnits="userSpaceOnUse" x="157" y="294" width="31" height="23">
<path d="M187.32 303.07C187.32 303.07 181.57 294.82 174.57 294.07C167.57 293.32 159.07 299.07 158.82 301.07C158.57 303.07 156.82 313.82 158.07 315.32C159.32 316.82 164.07 318.07 173.32 315.07C182.57 312.07 186.32 308.32 187.32 303.07Z" fill="white"/>
</mask>
<g mask="url(#mask2_444_4182)">
<path d="M163.93 315.06C163.93 315.06 161.93 309.34 162.93 307.35C163.93 305.36 167.93 302.35 170.4 299.35C172.87 296.35 164.57 301.04 164.17 299.35C163.86 297.99 168.56 295.27 170.41 294.26C164.59 295.38 159.02 299.43 158.82 301.04C158.57 303.04 156.82 313.79 158.07 315.29C158.71 316.06 160.3 316.769 162.95 316.859C163.55 315.83 163.93 315.06 163.93 315.06Z" fill="#62CCBF"/>
<path opacity="0.5" d="M163.93 315.06C163.93 315.06 161.93 309.34 162.93 307.35C163.93 305.36 167.93 302.35 170.4 299.35C172.87 296.35 164.57 301.04 164.17 299.35C163.86 297.99 168.56 295.27 170.41 294.26C164.59 295.38 159.02 299.43 158.82 301.04C158.57 303.04 156.82 313.79 158.07 315.29C158.71 316.06 160.3 316.769 162.95 316.859C163.55 315.83 163.93 315.06 163.93 315.06Z" fill="white"/>
</g>
<path d="M187.32 303.07C187.32 303.07 181.57 294.82 174.57 294.07C167.57 293.32 159.07 299.07 158.82 301.07C158.57 303.07 156.82 313.82 158.07 315.32C159.32 316.82 164.07 318.07 173.32 315.07C182.57 312.07 186.32 308.32 187.32 303.07Z" stroke="#263238" stroke-linecap="round" stroke-linejoin="round"/>
<path d="M167.82 305.32C167.82 305.32 158.44 309.04 158.07 316.32C157.86 320.32 164.57 322.07 171.57 322.07C178.57 322.07 188.57 313.32 195.07 309.57C201.57 305.82 216.57 297.07 218.32 296.32C220.07 295.57 226.07 297.57 228.57 298.32C230.953 298.83 233.383 299.082 235.82 299.07C235.82 299.07 239.32 304.57 241.07 304.57C242.82 304.57 237.32 296.32 236.57 294.57C235.82 292.82 223.57 288.82 222.07 288.82C220.57 288.82 185.57 297.57 180.32 299.57C175.07 301.57 167.82 305.32 167.82 305.32Z" fill="white"/>
<mask id="mask3_444_4182" style="mask-type:luminance" maskUnits="userSpaceOnUse" x="158" y="288" width="84" height="35">
<path d="M167.82 305.32C167.82 305.32 158.44 309.04 158.07 316.32C157.86 320.32 164.57 322.07 171.57 322.07C178.57 322.07 188.57 313.32 195.07 309.57C201.57 305.82 216.57 297.07 218.32 296.32C220.07 295.57 226.07 297.57 228.57 298.32C230.953 298.831 233.383 299.082 235.82 299.07C235.82 299.07 239.32 304.57 241.07 304.57C242.82 304.57 237.32 296.32 236.57 294.57C235.82 292.82 223.57 288.82 222.07 288.82C220.57 288.82 185.57 297.57 180.32 299.57C175.07 301.57 167.82 305.32 167.82 305.32Z" fill="white"/>
</mask>
<g mask="url(#mask3_444_4182)">
<path d="M187.43 304.28C201.72 297.13 222.07 288.82 222.07 288.82C220.57 288.82 185.57 297.57 180.32 299.57C175.07 301.57 167.82 305.32 167.82 305.32C167.82 305.32 158.44 309.04 158.07 316.32C157.86 320.32 164.57 322.07 171.57 322.07C178.57 322.07 188.57 313.32 195.07 309.57L199.01 307.29C189.46 308.5 176.69 309.64 187.43 304.28Z" fill="#62CCBF"/>
<path opacity="0.5" d="M187.43 304.28C201.72 297.13 222.07 288.82 222.07 288.82C220.57 288.82 185.57 297.57 180.32 299.57C175.07 301.57 167.82 305.32 167.82 305.32C167.82 305.32 158.44 309.04 158.07 316.32C157.86 320.32 164.57 322.07 171.57 322.07C178.57 322.07 188.57 313.32 195.07 309.57L199.01 307.29C189.46 308.5 176.69 309.64 187.43 304.28Z" fill="white"/>
</g>
<path d="M167.82 305.32C167.82 305.32 158.44 309.04 158.07 316.32C157.86 320.32 164.57 322.07 171.57 322.07C178.57 322.07 188.57 313.32 195.07 309.57C201.57 305.82 216.57 297.07 218.32 296.32C220.07 295.57 226.07 297.57 228.57 298.32C230.953 298.83 233.383 299.082 235.82 299.07C235.82 299.07 239.32 304.57 241.07 304.57C242.82 304.57 237.32 296.32 236.57 294.57C235.82 292.82 223.57 288.82 222.07 288.82C220.57 288.82 185.57 297.57 180.32 299.57C175.07 301.57 167.82 305.32 167.82 305.32Z" stroke="#263238" stroke-linecap="round" stroke-linejoin="round"/>
<path d="M240.94 249.721L233.32 292.571L288.32 292.821L296.5 252.181C296.568 251.822 296.558 251.453 296.47 251.099C296.382 250.745 296.218 250.414 295.99 250.129C295.762 249.844 295.475 249.611 295.149 249.448C294.823 249.284 294.465 249.193 294.1 249.181L243.5 247.661C242.898 247.641 242.308 247.838 241.838 248.216C241.369 248.594 241.05 249.128 240.94 249.721Z" fill="#F6F9F8" stroke="#263238" stroke-linecap="round" stroke-linejoin="round"/>
<path d="M233.32 292.57L206.54 311.51L267.79 309.76L288.32 292.82L233.32 292.57Z" fill="white"/>
<mask id="mask4_444_4182" style="mask-type:luminance" maskUnits="userSpaceOnUse" x="206" y="292" width="83" height="20">
<path d="M233.32 292.569L206.54 311.509L267.79 309.759L288.32 292.819L233.32 292.569Z" fill="white"/>
</mask>
<g mask="url(#mask4_444_4182)">
<path d="M233.32 292.569L206.54 311.509L267.79 309.759L288.32 292.819L233.32 292.569Z" fill="#62CCBF"/>
<path opacity="0.5" d="M233.32 292.569L206.54 311.509L267.79 309.759L288.32 292.819L233.32 292.569Z" fill="white"/>
</g>
<path d="M233.32 292.57L206.54 311.51L267.79 309.76L288.32 292.82L233.32 292.57Z" stroke="#263238" stroke-linecap="round" stroke-linejoin="round"/>
<path d="M253.57 311.32C253.57 311.32 275.57 292.07 297.32 285.57C319.07 279.07 323.57 280.07 323.07 289.82C322.57 299.57 312.07 350.57 305.07 363.57C298.07 376.57 289.32 400.32 289.57 404.82C289.82 409.32 298.32 422.57 305.82 427.32C313.32 432.07 312.57 437.82 307.82 438.82C303.07 439.82 297.57 441.57 281.32 431.07C265.07 420.57 258.32 405.57 259.32 401.82C260.32 398.07 270.82 393.07 275.07 385.57C279.32 378.07 286.32 350.07 286.82 337.32C287.226 329.271 288.914 321.338 291.82 313.82C291.82 313.82 264.32 318.82 256.32 323.82L253.57 311.32Z" fill="white"/>
<mask id="mask5_444_4182" style="mask-type:luminance" maskUnits="userSpaceOnUse" x="253" y="281" width="71" height="159">
<path d="M253.57 311.319C253.57 311.319 275.57 292.069 297.32 285.569C319.07 279.069 323.57 280.069 323.07 289.819C322.57 299.569 312.07 350.569 305.07 363.569C298.07 376.569 289.32 400.319 289.57 404.819C289.82 409.319 298.32 422.569 305.82 427.319C313.32 432.069 312.57 437.819 307.82 438.819C303.07 439.819 297.57 441.569 281.32 431.069C265.07 420.569 258.32 405.569 259.32 401.819C260.32 398.069 270.82 393.069 275.07 385.569C279.32 378.069 286.32 350.069 286.82 337.319C287.226 329.27 288.914 321.337 291.82 313.819C291.82 313.819 264.32 318.819 256.32 323.819L253.57 311.319Z" fill="white"/>
</mask>
<g mask="url(#mask5_444_4182)">
<path d="M253.57 311.319C253.57 311.319 275.57 292.069 297.32 285.569C319.07 279.069 323.57 280.069 323.07 289.819C322.57 299.569 312.07 350.569 305.07 363.569C298.07 376.569 289.32 400.319 289.57 404.819C289.82 409.319 298.32 422.569 305.82 427.319C313.32 432.069 312.57 437.819 307.82 438.819C303.07 439.819 297.57 441.569 281.32 431.069C265.07 420.569 258.32 405.569 259.32 401.819C260.32 398.069 270.82 393.069 275.07 385.569C279.32 378.069 286.32 350.069 286.82 337.319C287.226 329.27 288.914 321.337 291.82 313.819C291.82 313.819 264.32 318.819 256.32 323.819L253.57 311.319Z" fill="#62CCBF"/>
<path opacity="0.5" d="M253.57 311.319C253.57 311.319 275.57 292.069 297.32 285.569C319.07 279.069 323.57 280.069 323.07 289.819C322.57 299.569 312.07 350.569 305.07 363.569C298.07 376.569 289.32 400.319 289.57 404.819C289.82 409.319 298.32 422.569 305.82 427.319C313.32 432.069 312.57 437.819 307.82 438.819C303.07 439.819 297.57 441.569 281.32 431.069C265.07 420.569 258.32 405.569 259.32 401.819C260.32 398.069 270.82 393.069 275.07 385.569C279.32 378.069 286.32 350.069 286.82 337.319C287.226 329.27 288.914 321.337 291.82 313.819C291.82 313.819 264.32 318.819 256.32 323.819L253.57 311.319Z" fill="white"/>
</g>
<path d="M253.57 311.32C253.57 311.32 275.57 292.07 297.32 285.57C319.07 279.07 323.57 280.07 323.07 289.82C322.57 299.57 312.07 350.57 305.07 363.57C298.07 376.57 289.32 400.32 289.57 404.82C289.82 409.32 298.32 422.57 305.82 427.32C313.32 432.07 312.57 437.82 307.82 438.82C303.07 439.82 297.57 441.57 281.32 431.07C265.07 420.57 258.32 405.57 259.32 401.82C260.32 398.07 270.82 393.07 275.07 385.57C279.32 378.07 286.32 350.07 286.82 337.32C287.226 329.271 288.914 321.338 291.82 313.82C291.82 313.82 264.32 318.82 256.32 323.82L253.57 311.32Z" stroke="#263238" stroke-linecap="round" stroke-linejoin="round"/>
<path d="M275.07 385.57C274.75 386.13 274.39 386.67 274.01 387.21C279.181 387.697 284.084 389.74 288.07 393.07C289.269 394.111 290.41 395.216 291.49 396.38C295.12 385.093 299.661 374.121 305.07 363.57C312.07 350.57 322.57 299.57 323.07 289.82C323.57 280.07 319.07 279.07 297.32 285.57C275.57 292.07 253.57 311.32 253.57 311.32L256.32 323.82C264.32 318.82 291.82 313.82 291.82 313.82C288.914 321.338 287.226 329.271 286.82 337.32C286.32 350.07 279.32 378.07 275.07 385.57Z" fill="white" stroke="#263238" stroke-linecap="round" stroke-linejoin="round"/>
<path d="M275.07 385.57C274.75 386.13 274.39 386.67 274.01 387.21C279.181 387.697 284.084 389.74 288.07 393.07C289.269 394.111 290.41 395.216 291.49 396.38C296.28 389.94 301.67 369.63 307.75 361.27C323.46 339.68 322.57 299.57 323.07 289.82C323.57 280.07 319.07 279.07 297.32 285.57C275.57 292.07 253.57 311.32 253.57 311.32L256.32 323.82C264.32 318.82 291.82 313.82 291.82 313.82C288.914 321.338 287.226 329.271 286.82 337.32C286.32 350.07 279.32 378.07 275.07 385.57Z" fill="#263238"/>
<mask id="mask6_444_4182" style="mask-type:luminance" maskUnits="userSpaceOnUse" x="253" y="281" width="71" height="116">
<path d="M275.07 385.569C274.75 386.129 274.39 386.669 274.01 387.209C279.181 387.696 284.084 389.74 288.07 393.069C289.269 394.11 290.41 395.215 291.49 396.379C296.28 389.939 301.67 369.629 307.75 361.269C323.46 339.679 322.57 299.569 323.07 289.819C323.57 280.069 319.07 279.069 297.32 285.569C275.57 292.069 253.57 311.319 253.57 311.319L256.32 323.819C264.32 318.819 291.82 313.819 291.82 313.819C288.914 321.337 287.226 329.27 286.82 337.319C286.32 350.069 279.32 378.069 275.07 385.569Z" fill="white"/>
</mask>
<g mask="url(#mask6_444_4182)">
<path opacity="0.53" d="M275.07 385.569C274.75 386.129 274.39 386.669 274.01 387.209C279.181 387.696 284.084 389.74 288.07 393.069C289.269 394.11 290.41 395.215 291.49 396.379C296.28 389.939 301.67 369.629 307.75 361.269C323.46 339.679 322.57 299.569 323.07 289.819C323.57 280.069 319.07 279.069 297.32 285.569C275.57 292.069 253.57 311.319 253.57 311.319L256.32 323.819C264.32 318.819 291.82 313.819 291.82 313.819C288.914 321.337 287.226 329.27 286.82 337.319C286.32 350.069 279.32 378.069 275.07 385.569Z" fill="white"/>
<path opacity="0.14" d="M312.5 288.499C312.11 284.949 273.44 301.319 257.13 308.379C254.87 310.179 253.57 311.319 253.57 311.319L256.32 323.819C264.32 318.819 291.82 313.819 291.82 313.819C288.914 321.337 287.226 329.27 286.82 337.319C286.32 350.069 279.32 378.069 275.07 385.569C274.75 386.129 274.39 386.669 274.01 387.209C276.764 387.505 279.459 388.202 282.01 389.279C288 376.499 294.45 361.629 297.5 349.999C303 328.999 313 292.999 312.5 288.499Z" fill="black"/>
<path d="M291.82 313.82C291.82 313.82 299.32 298.57 305.82 292.32" stroke="#263238" stroke-linecap="round" stroke-linejoin="round"/>
</g>
<path d="M275.07 385.57C274.75 386.13 274.39 386.67 274.01 387.21C279.181 387.697 284.084 389.74 288.07 393.07C289.269 394.111 290.41 395.216 291.49 396.38C296.28 389.94 301.67 369.63 307.75 361.27C323.46 339.68 322.57 299.57 323.07 289.82C323.57 280.07 319.07 279.07 297.32 285.57C275.57 292.07 253.57 311.32 253.57 311.32L256.32 323.82C264.32 318.82 291.82 313.82 291.82 313.82C288.914 321.338 287.226 329.271 286.82 337.32C286.32 350.07 279.32 378.07 275.07 385.57Z" stroke="#263238" stroke-linecap="round" stroke-linejoin="round"/>
<path d="M220.61 331.5C228.663 331.132 236.624 329.634 244.26 327.05C255.57 322.93 235 315.39 227.12 319.51C224.918 320.577 223.106 322.308 221.939 324.459C220.771 326.609 220.306 329.071 220.61 331.5Z" fill="#263238" stroke="#263238" stroke-linecap="round" stroke-linejoin="round"/>
<path d="M188.07 315.32C188.07 315.32 180.07 319.82 177.32 324.82C174.57 329.82 186.4 338.15 198.9 337.65C211.4 337.15 234.32 323.57 234.32 323.57C234.32 323.57 234.57 345.57 238.82 353.57C243.07 361.57 262.57 381.07 270.32 386.07C278.07 391.07 304.07 409.82 308.07 412.82C312.07 415.82 319.57 421.32 321.32 421.57C323.07 421.82 341.32 399.57 345.57 392.07C349.82 384.57 353.57 368.82 352.07 365.32C350.57 361.82 347.57 364.82 344.57 367.32C341.57 369.82 314.07 388.07 311.57 389.32C310.205 390.021 308.783 390.607 307.32 391.07C307.32 391.07 284.82 369.57 272.82 353.07C260.82 336.57 259.82 315.32 255.32 307.32C250.82 299.32 244.32 295.82 234.57 296.82C224.82 297.82 204.57 303.07 188.07 315.32Z" fill="white"/>
<mask id="mask7_444_4182" style="mask-type:luminance" maskUnits="userSpaceOnUse" x="176" y="296" width="177" height="126">
<path d="M188.07 315.32C188.07 315.32 180.07 319.82 177.32 324.82C174.57 329.82 186.4 338.15 198.9 337.65C211.4 337.15 234.32 323.57 234.32 323.57C234.32 323.57 234.57 345.57 238.82 353.57C243.07 361.57 262.57 381.07 270.32 386.07C278.07 391.07 304.07 409.82 308.07 412.82C312.07 415.82 319.57 421.32 321.32 421.57C323.07 421.82 341.32 399.57 345.57 392.07C349.82 384.57 353.57 368.82 352.07 365.32C350.57 361.82 347.57 364.82 344.57 367.32C341.57 369.82 314.07 388.07 311.57 389.32C310.205 390.021 308.783 390.607 307.32 391.07C307.32 391.07 284.82 369.57 272.82 353.07C260.82 336.57 259.82 315.32 255.32 307.32C250.82 299.32 244.32 295.82 234.57 296.82C224.82 297.82 204.57 303.07 188.07 315.32Z" fill="white"/>
</mask>
<g mask="url(#mask7_444_4182)">
<path d="M293.85 402.499C300.53 407.279 306.34 411.499 308.07 412.799C312.07 415.799 319.57 421.299 321.32 421.549C321.94 421.639 324.64 418.889 328.05 414.979L299.42 396.559L293.85 402.499Z" fill="#62CCBF"/>
<path opacity="0.5" d="M293.85 402.499C300.53 407.279 306.34 411.499 308.07 412.799C312.07 415.799 319.57 421.299 321.32 421.549C321.94 421.639 324.64 418.889 328.05 414.979L299.42 396.559L293.85 402.499Z" fill="white"/>
</g>
<path d="M188.07 315.32C188.07 315.32 180.07 319.82 177.32 324.82C174.57 329.82 186.4 338.15 198.9 337.65C211.4 337.15 234.32 323.57 234.32 323.57C234.32 323.57 234.57 345.57 238.82 353.57C243.07 361.57 262.57 381.07 270.32 386.07C278.07 391.07 304.07 409.82 308.07 412.82C312.07 415.82 319.57 421.32 321.32 421.57C323.07 421.82 341.32 399.57 345.57 392.07C349.82 384.57 353.57 368.82 352.07 365.32C350.57 361.82 347.57 364.82 344.57 367.32C341.57 369.82 314.07 388.07 311.57 389.32C310.205 390.021 308.783 390.607 307.32 391.07C307.32 391.07 284.82 369.57 272.82 353.07C260.82 336.57 259.82 315.32 255.32 307.32C250.82 299.32 244.32 295.82 234.57 296.82C224.82 297.82 204.57 303.07 188.07 315.32Z" stroke="#263238" stroke-linecap="round" stroke-linejoin="round"/>
<path d="M305.77 389.57C300.48 384.41 280.65 357.8 272.82 342.5C261.35 320.08 260.11 312.44 255.61 304.44C251.11 296.44 244.32 295.82 234.61 296.82C224.9 297.82 207.41 299.63 186.01 311.77C186.01 311.77 177.01 316.65 174.27 321.65C171.53 326.65 181.54 339.24 198.94 337.65C211.4 336.51 234.36 323.57 234.36 323.57C234.36 323.57 234.61 345.57 238.86 353.57C243.11 361.57 262.61 381.07 270.36 386.07C275.27 389.24 287.52 397.94 296.85 404.64C299.15 396.27 303.28 391.69 305.77 389.57Z" fill="#263238"/>
<mask id="mask8_444_4182" style="mask-type:luminance" maskUnits="userSpaceOnUse" x="173" y="296" width="133" height="109">
<path d="M305.77 389.57C300.48 384.41 280.65 357.8 272.82 342.5C261.35 320.08 260.11 312.44 255.61 304.44C251.11 296.44 244.32 295.82 234.61 296.82C224.9 297.82 207.41 299.63 186.01 311.77C186.01 311.77 177.01 316.65 174.27 321.65C171.53 326.65 181.54 339.24 198.94 337.65C211.4 336.51 234.36 323.57 234.36 323.57C234.36 323.57 234.61 345.57 238.86 353.57C243.11 361.57 262.61 381.07 270.36 386.07C275.27 389.24 287.52 397.94 296.85 404.64C299.15 396.27 303.28 391.69 305.77 389.57Z" fill="white"/>
</mask>
<g mask="url(#mask8_444_4182)">
<path opacity="0.53" d="M305.77 389.57C300.48 384.41 280.65 357.8 272.82 342.5C261.35 320.08 260.11 312.44 255.61 304.44C251.11 296.44 244.32 295.82 234.61 296.82C224.9 297.82 207.41 299.63 186.01 311.77C186.01 311.77 177.01 316.65 174.27 321.65C171.53 326.65 181.54 339.24 198.94 337.65C211.4 336.51 234.36 323.57 234.36 323.57C234.36 323.57 234.61 345.57 238.86 353.57C243.11 361.57 262.61 381.07 270.36 386.07C275.27 389.24 287.52 397.94 296.85 404.64C299.15 396.27 303.28 391.69 305.77 389.57Z" fill="white"/>
<path opacity="0.14" d="M255.5 354C248 335 252.5 297 231.5 302C216.2 305.64 188.15 318.58 174.06 325.33C175.73 331.07 184.93 338.93 198.9 337.65C211.36 336.51 234.32 323.57 234.32 323.57C234.32 323.57 234.57 345.57 238.82 353.57C243.07 361.57 262.57 381.07 270.32 386.07C275.23 389.24 287.48 397.94 296.81 404.64C297.614 401.713 298.786 398.901 300.3 396.27C281.68 382.5 259.69 364.61 255.5 354Z" fill="black"/>
<path d="M234.32 323.57L233.57 310.57" stroke="#263238" stroke-linecap="round" stroke-linejoin="round"/>
</g>
<path d="M305.77 389.57C300.48 384.41 280.65 357.8 272.82 342.5C261.35 320.08 260.11 312.44 255.61 304.44C251.11 296.44 244.32 295.82 234.61 296.82C224.9 297.82 207.41 299.63 186.01 311.77C186.01 311.77 177.01 316.65 174.27 321.65C171.53 326.65 181.54 339.24 198.94 337.65C211.4 336.51 234.36 323.57 234.36 323.57C234.36 323.57 234.61 345.57 238.86 353.57C243.11 361.57 262.61 381.07 270.36 386.07C275.27 389.24 287.52 397.94 296.85 404.64C299.15 396.27 303.28 391.69 305.77 389.57Z" stroke="#263238" stroke-linecap="round" stroke-linejoin="round"/>
<path d="M308.07 412.82C312.07 415.82 319.57 421.32 321.32 421.57C323.07 421.82 341.32 399.57 345.57 392.07C349.82 384.57 353.57 368.82 352.07 365.32C350.57 361.82 347.57 364.82 344.57 367.32C341.57 369.82 314.07 388.07 311.57 389.32C310.91 389.65 310.31 389.92 309.78 390.15C309.06 391.52 308.18 393.64 308.78 395.07C309.78 397.32 314.03 400.32 314.03 400.32L306.46 411.66L308.07 412.82Z" fill="#263238" stroke="#263238" stroke-linecap="round" stroke-linejoin="round"/>
<path d="M345.57 392.07C349.82 384.57 353.57 368.82 352.07 365.32C351.2 363.32 349.83 363.45 348.24 364.43C349.29 369.1 348.24 378.11 343.07 387.82C338.46 396.48 324.22 411.82 317.07 419.24C318.373 420.22 319.811 421.005 321.34 421.57C323.07 421.82 341.32 399.57 345.57 392.07Z" fill="white"/>
<mask id="mask9_444_4182" style="mask-type:luminance" maskUnits="userSpaceOnUse" x="317" y="363" width="36" height="59">
<path d="M345.57 392.069C349.82 384.569 353.57 368.819 352.07 365.319C351.2 363.319 349.83 363.449 348.24 364.429C349.29 369.099 348.24 378.109 343.07 387.819C338.46 396.479 324.22 411.819 317.07 419.239C318.373 420.219 319.811 421.004 321.34 421.569C323.07 421.819 341.32 399.569 345.57 392.069Z" fill="white"/>
</mask>
<g mask="url(#mask9_444_4182)">
<path d="M321.57 421.5L321.79 421.39L321.85 421.34C321.971 421.271 322.085 421.191 322.19 421.1L322.31 421L322.6 420.76L322.76 420.61L323.15 420.25L323.39 420.02L323.72 419.7L324 419.42L324.28 419.14L324.99 418.39L325.11 418.27L325.55 417.79L325.73 417.6C326.25 417.03 326.81 416.41 327.39 415.75V415.7L328.01 415L323.64 412.19C321.16 414.89 318.85 417.33 317.01 419.24L317.68 419.68L317.78 419.74L318.4 420.13L319.4 420.7L319.68 420.86L319.96 421.01L320.28 421.17L320.49 421.27C320.59 421.32 320.694 421.363 320.8 421.4L320.95 421.46C321.065 421.508 321.186 421.541 321.31 421.56C321.372 421.576 321.438 421.576 321.5 421.56L321.57 421.5Z" fill="#62CCBF"/>
<path opacity="0.5" d="M321.57 421.5L321.79 421.39L321.85 421.34C321.971 421.271 322.085 421.191 322.19 421.1L322.31 421L322.6 420.76L322.76 420.61L323.15 420.25L323.39 420.02L323.72 419.7L324 419.42L324.28 419.14L324.99 418.39L325.11 418.27L325.55 417.79L325.73 417.6C326.25 417.03 326.81 416.41 327.39 415.75V415.7L328.01 415L323.64 412.19C321.16 414.89 318.85 417.33 317.01 419.24L317.68 419.68L317.78 419.74L318.4 420.13L319.4 420.7L319.68 420.86L319.96 421.01L320.28 421.17L320.49 421.27C320.59 421.32 320.694 421.363 320.8 421.4L320.95 421.46C321.065 421.508 321.186 421.541 321.31 421.56C321.372 421.576 321.438 421.576 321.5 421.56L321.57 421.5Z" fill="white"/>
</g>
<path d="M345.57 392.07C349.82 384.57 353.57 368.82 352.07 365.32C351.2 363.32 349.83 363.45 348.24 364.43C349.29 369.1 348.24 378.11 343.07 387.82C338.46 396.48 324.22 411.82 317.07 419.24C318.373 420.22 319.811 421.005 321.34 421.57C323.07 421.82 341.32 399.57 345.57 392.07Z" stroke="#263238" stroke-linecap="round" stroke-linejoin="round"/>
<path d="M305.82 427.32C298.32 422.57 289.82 409.32 289.57 404.82C289.559 404.328 289.599 403.835 289.69 403.35C288.197 403.398 286.756 403.912 285.57 404.82C282.492 402.028 279.235 399.439 275.82 397.07C273.07 395.486 269.988 394.565 266.82 394.38C263.19 397.38 259.82 399.78 259.29 401.82C258.29 405.57 265.04 420.57 281.29 431.07C297.54 441.57 303.04 439.82 307.79 438.82C312.54 437.82 313.32 432.07 305.82 427.32Z" fill="#263238" stroke="#263238" stroke-linecap="round" stroke-linejoin="round"/>
<path d="M305.82 427.32C303.335 425.636 301.094 423.617 299.16 421.32C294 419.12 287.11 416.32 281.07 412.56C274.57 408.56 276.07 406.06 272.32 402.31C269.44 399.43 263.78 399.06 261.32 399.04C260.432 399.781 259.744 400.734 259.32 401.81C258.32 405.56 265.07 420.56 281.32 431.06C297.57 441.56 303.07 439.81 307.82 438.81C312.57 437.81 313.32 432.07 305.82 427.32Z" fill="white"/>
<mask id="mask10_444_4182" style="mask-type:luminance" maskUnits="userSpaceOnUse" x="259" y="399" width="53" height="41">
<path d="M305.82 427.319C303.335 425.635 301.094 423.616 299.16 421.319C294 419.119 287.11 416.319 281.07 412.559C274.57 408.559 276.07 406.059 272.32 402.309C269.44 399.429 263.78 399.059 261.32 399.039C260.432 399.781 259.744 400.733 259.32 401.809C258.32 405.559 265.07 420.559 281.32 431.059C297.57 441.559 303.07 439.809 307.82 438.809C312.57 437.809 313.32 432.069 305.82 427.319Z" fill="white"/>
</mask>
<g mask="url(#mask10_444_4182)">
<path d="M305.82 427.319C303.335 425.635 301.094 423.616 299.16 421.319C294 419.119 287.11 416.319 281.07 412.559C274.57 408.559 276.07 406.059 272.32 402.309C269.44 399.429 263.78 399.059 261.32 399.039C260.432 399.781 259.744 400.733 259.32 401.809C258.32 405.559 265.07 420.559 281.32 431.059C297.57 441.559 303.07 439.809 307.82 438.809C312.57 437.809 313.32 432.069 305.82 427.319Z" fill="#62CCBF"/>
<path opacity="0.5" d="M305.82 427.319C303.335 425.635 301.094 423.616 299.16 421.319C294 419.119 287.11 416.319 281.07 412.559C274.57 408.559 276.07 406.059 272.32 402.309C269.44 399.429 263.78 399.059 261.32 399.039C260.432 399.781 259.744 400.733 259.32 401.809C258.32 405.559 265.07 420.559 281.32 431.059C297.57 441.559 303.07 439.809 307.82 438.809C312.57 437.809 313.32 432.069 305.82 427.319Z" fill="white"/>
</g>
<path d="M305.82 427.32C303.335 425.636 301.094 423.617 299.16 421.32C294 419.12 287.11 416.32 281.07 412.56C274.57 408.56 276.07 406.06 272.32 402.31C269.44 399.43 263.78 399.06 261.32 399.04C260.432 399.781 259.744 400.734 259.32 401.81C258.32 405.56 265.07 420.56 281.32 431.06C297.57 441.56 303.07 439.81 307.82 438.81C312.57 437.81 313.32 432.07 305.82 427.32Z" stroke="#263238" stroke-linecap="round" stroke-linejoin="round"/>
<path d="M307.07 429.069C300.57 425.319 287.32 422.819 278.82 417.069C270.32 411.319 272.57 406.319 266.32 402.319C265.322 401.573 264.125 401.137 262.88 401.066C261.636 400.994 260.397 401.291 259.32 401.919C258.45 405.819 265.22 420.649 281.32 431.069C297.42 441.489 303.07 439.819 307.82 438.819C310.98 438.149 312.35 435.389 310.72 432.219C309.7 430.961 308.464 429.894 307.07 429.069Z" fill="#263238"/>
<mask id="mask11_444_4182" style="mask-type:luminance" maskUnits="userSpaceOnUse" x="259" y="401" width="53" height="39">
<path d="M307.07 429.069C300.57 425.319 287.32 422.819 278.82 417.069C270.32 411.319 272.57 406.319 266.32 402.319C265.322 401.573 264.125 401.137 262.88 401.066C261.636 400.994 260.397 401.291 259.32 401.919C258.45 405.819 265.22 420.649 281.32 431.069C297.42 441.489 303.07 439.819 307.82 438.819C310.98 438.149 312.35 435.389 310.72 432.219C309.7 430.961 308.464 429.894 307.07 429.069Z" fill="white"/>
</mask>
<g mask="url(#mask11_444_4182)">
<path opacity="0.53" d="M307.07 429.069C300.57 425.319 287.32 422.819 278.82 417.069C270.32 411.319 272.57 406.319 266.32 402.319C265.322 401.573 264.125 401.137 262.88 401.066C261.636 400.994 260.397 401.291 259.32 401.919C258.45 405.819 265.22 420.649 281.32 431.069C297.42 441.489 303.07 439.819 307.82 438.819C310.98 438.149 312.35 435.389 310.72 432.219C309.7 430.961 308.464 429.894 307.07 429.069Z" fill="white"/>
</g>
<path d="M307.07 429.069C300.57 425.319 287.32 422.819 278.82 417.069C270.32 411.319 272.57 406.319 266.32 402.319C265.322 401.573 264.125 401.137 262.88 401.066C261.636 400.994 260.397 401.291 259.32 401.919C258.45 405.819 265.22 420.649 281.32 431.069C297.42 441.489 303.07 439.819 307.82 438.819C310.98 438.149 312.35 435.389 310.72 432.219C309.7 430.961 308.464 429.894 307.07 429.069Z" stroke="#263238" stroke-linecap="round" stroke-linejoin="round"/>
<path d="M182.49 381.25C182.49 381.25 187.29 375.42 187.97 379.88C188.65 384.34 187.63 392.56 184.2 395.64C180.77 398.72 179.06 393.93 179.06 393.93L181.12 391.19C181.12 391.19 182.83 394.62 184.2 389.13C185.57 383.64 181.46 384.33 181.46 384.33L182.49 381.25Z" fill="white" stroke="#263238" stroke-linecap="round" stroke-linejoin="round"/>
<path d="M178.82 403.19C175.98 405.29 166.72 405.29 163.89 403.19C157.89 398.74 158.89 377.24 158.89 377.24H183.75C183.75 377.24 184.83 398.74 178.82 403.19Z" fill="#F6F9F8" stroke="#263238" stroke-linecap="round" stroke-linejoin="round"/>
<path d="M161.61 373.019C161.61 370.319 164.12 370.319 164.12 367.609C164.12 364.899 161.61 364.899 161.61 362.199C161.61 359.499 164.12 359.489 164.12 356.779C164.12 354.069 161.61 354.069 161.61 351.359C161.61 348.649 164.12 348.649 164.12 345.939" stroke="#263238" stroke-linecap="round" stroke-linejoin="round"/>
<path d="M170.2 373.02C170.2 371.02 172.71 371.02 172.71 368.91C172.71 366.8 170.2 366.86 170.2 364.8C170.2 362.74 172.71 362.75 172.71 360.69C172.71 358.63 170.2 358.63 170.2 356.57C170.2 354.51 172.71 354.52 172.71 352.46" stroke="#263238" stroke-linecap="round" stroke-linejoin="round"/>
<path d="M179.65 373.019C179.65 370.319 182.15 370.319 182.15 367.609C182.15 364.899 179.65 364.899 179.65 362.199C179.65 359.499 182.15 359.489 182.15 356.779C182.15 354.069 179.65 354.069 179.65 351.359C179.65 348.649 182.15 348.649 182.15 345.939" stroke="#263238" stroke-linecap="round" stroke-linejoin="round"/>
<path d="M183.77 377.24C183.77 377.87 178.21 378.37 171.34 378.37C164.47 378.37 158.91 377.87 158.91 377.24C158.91 376.61 164.47 376.11 171.34 376.11C178.21 376.11 183.77 376.61 183.77 377.24Z" fill="white" stroke="#263238" stroke-linecap="round" stroke-linejoin="round"/>
<path d="M206.72 222.5C206.72 222.5 207.89 235.13 208.38 239.12C208.87 243.11 209.98 254.57 211.13 258.36C212.28 262.15 218.55 268.74 219.13 267.22C219.71 265.7 222.83 255.39 221.59 249.22C220.35 243.05 219.97 237.78 220.74 236.22C221.51 234.66 224.28 232.91 224.28 232.91C221.054 231.258 217.919 229.432 214.89 227.44C210.47 224.5 207.34 221.17 206.72 222.5Z" fill="white"/>
<mask id="mask12_444_4182" style="mask-type:luminance" maskUnits="userSpaceOnUse" x="206" y="222" width="19" height="46">
<path d="M206.72 222.5C206.72 222.5 207.89 235.13 208.38 239.12C208.87 243.11 209.98 254.57 211.13 258.36C212.28 262.15 218.55 268.74 219.13 267.22C219.71 265.7 222.83 255.39 221.59 249.22C220.35 243.05 219.97 237.78 220.74 236.22C221.51 234.66 224.28 232.91 224.28 232.91C221.054 231.258 217.919 229.432 214.89 227.44C210.47 224.5 207.34 221.17 206.72 222.5Z" fill="white"/>
</mask>
<g mask="url(#mask12_444_4182)">
<path d="M222.77 233.59L221.77 231.65C219.93 230.65 217.37 229.17 214.94 227.54C210.49 224.54 207.36 221.17 206.74 222.54C206.74 222.54 207.91 235.17 208.4 239.16C208.89 243.15 210 254.61 211.15 258.4C211.542 259.508 212.084 260.558 212.76 261.52C211.55 253.98 212.86 240.36 212.86 240.36L222.77 233.59Z" fill="#62CCBF"/>
<path opacity="0.5" d="M222.77 233.59L221.77 231.65C219.93 230.65 217.37 229.17 214.94 227.54C210.49 224.54 207.36 221.17 206.74 222.54C206.74 222.54 207.91 235.17 208.4 239.16C208.89 243.15 210 254.61 211.15 258.4C211.542 259.508 212.084 260.558 212.76 261.52C211.55 253.98 212.86 240.36 212.86 240.36L222.77 233.59Z" fill="white"/>
</g>
<path d="M206.72 222.5C206.72 222.5 207.89 235.13 208.38 239.12C208.87 243.11 209.98 254.57 211.13 258.36C212.28 262.15 218.55 268.74 219.13 267.22C219.71 265.7 222.83 255.39 221.59 249.22C220.35 243.05 219.97 237.78 220.74 236.22C221.51 234.66 224.28 232.91 224.28 232.91C221.054 231.258 217.919 229.432 214.89 227.44C210.47 224.5 207.34 221.17 206.72 222.5Z" stroke="#263238" stroke-linecap="round" stroke-linejoin="round"/>
<path d="M206.26 224.33C206.26 224.33 213.46 230.33 218.98 232.53C224.5 234.73 232.98 234.59 234.19 231.72C235.4 228.85 232.09 206.12 229.24 200.14C226.39 194.16 223.35 194.06 218.32 193.6C213.29 193.14 203.23 197.24 201.46 202.1C199.69 206.96 201.71 213.84 203.17 217.92C203.942 220.172 204.98 222.324 206.26 224.33Z" fill="white"/>
<mask id="mask13_444_4182" style="mask-type:luminance" maskUnits="userSpaceOnUse" x="200" y="193" width="35" height="42">
<path d="M206.26 224.33C206.26 224.33 213.46 230.33 218.98 232.53C224.5 234.73 232.98 234.59 234.19 231.72C235.4 228.85 232.09 206.12 229.24 200.14C226.39 194.16 223.35 194.06 218.32 193.6C213.29 193.14 203.23 197.24 201.46 202.1C199.69 206.96 201.71 213.84 203.17 217.92C203.942 220.172 204.98 222.323 206.26 224.33Z" fill="white"/>
</mask>
<g mask="url(#mask13_444_4182)">
<path d="M219.19 224.06C216.64 216.5 216 204.6 216 201.43C216 198.98 222.38 196.29 225.29 195.19C223.38 194.01 221.16 193.86 218.29 193.6C213.29 193.15 203.2 197.24 201.43 202.1C199.66 206.96 201.68 213.84 203.14 217.92C203.912 220.171 204.95 222.323 206.23 224.33C206.23 224.33 213.43 230.33 218.95 232.53C222.776 233.977 226.919 234.374 230.95 233.68C227 232.19 220.89 229.11 219.19 224.06Z" fill="#62CCBF"/>
<path opacity="0.5" d="M219.19 224.06C216.64 216.5 216 204.6 216 201.43C216 198.98 222.38 196.29 225.29 195.19C223.38 194.01 221.16 193.86 218.29 193.6C213.29 193.15 203.2 197.24 201.43 202.1C199.66 206.96 201.68 213.84 203.14 217.92C203.912 220.171 204.95 222.323 206.23 224.33C206.23 224.33 213.43 230.33 218.95 232.53C222.776 233.977 226.919 234.374 230.95 233.68C227 232.19 220.89 229.11 219.19 224.06Z" fill="white"/>
</g>
<path d="M206.26 224.33C206.26 224.33 213.46 230.33 218.98 232.53C224.5 234.73 232.98 234.59 234.19 231.72C235.4 228.85 232.09 206.12 229.24 200.14C226.39 194.16 223.35 194.06 218.32 193.6C213.29 193.14 203.23 197.24 201.46 202.1C199.69 206.96 201.71 213.84 203.17 217.92C203.942 220.172 204.98 222.324 206.26 224.33Z" stroke="#263238" stroke-linecap="round" stroke-linejoin="round"/>
<path d="M229.78 209.5C229.9 212.38 228.09 214.79 225.78 214.88C223.47 214.97 221.45 212.72 221.34 209.88C221.23 207.04 223.03 204.59 225.34 204.49C227.65 204.39 229.67 206.59 229.78 209.5Z" stroke="#263238" stroke-linecap="round" stroke-linejoin="round"/>
<path d="M235.44 208.379C235.56 211.259 234.63 213.629 233.37 213.679C232.11 213.729 230.99 211.439 230.88 208.559C230.77 205.679 231.7 203.299 232.96 203.249C234.22 203.199 235.33 205.499 235.44 208.379Z" stroke="#263238" stroke-linecap="round" stroke-linejoin="round"/>
<path d="M230.08 208.439C230.08 208.439 238.34 210.009 237.54 211.999C236.74 213.989 231.16 216.139 231.16 216.139" fill="white"/>
<path d="M230.08 208.439C230.08 208.439 238.34 210.009 237.54 211.999C236.74 213.989 231.16 216.139 231.16 216.139" stroke="#263238" stroke-linecap="round" stroke-linejoin="round"/>
<path d="M229.57 207.5C229.57 207.5 229.69 206.5 230.96 207.13" stroke="#263238" stroke-linecap="round" stroke-linejoin="round"/>
<path d="M221.08 210.28L206.06 216.19" stroke="#263238" stroke-linecap="round" stroke-linejoin="round"/>
<path d="M221.28 205.42C221.596 204.705 222.125 204.105 222.794 203.7C223.463 203.296 224.24 203.107 225.02 203.16" stroke="#263238" stroke-width="2" stroke-linecap="round" stroke-linejoin="round"/>
<path d="M231.28 203.23L228.97 204.1" stroke="#263238" stroke-width="2" stroke-linecap="round" stroke-linejoin="round"/>
<path d="M224.14 220C224.14 220 227.14 219.22 228.84 221" stroke="#263238" stroke-linecap="round" stroke-linejoin="round"/>
<path d="M226.07 210.02C226.21 211.02 226.07 211.88 225.66 211.93C225.25 211.98 224.89 211.21 224.75 210.2C224.61 209.19 224.8 208.35 225.17 208.3C225.54 208.25 225.94 209.02 226.07 210.02Z" fill="#263238"/>
<path d="M207.46 216.23C207.46 216.23 206.46 218.23 209.28 218.33C212.1 218.43 214.02 217.06 212.65 215.33C211.28 213.6 209.25 211.98 211.34 209.72C213.43 207.46 217.49 205.56 215.21 203.04C212.93 200.52 204.54 202.81 206.64 200.77C208.74 198.73 218.44 196.6 222.8 196.87C227.16 197.14 235.3 193.76 237.09 189.34C238.88 184.92 236.38 176.75 230.52 177.19C224.66 177.63 220.29 182.82 217.69 183.19C215.09 183.56 209.76 180.67 205.29 183.19C200.82 185.71 200.67 192.95 200.29 193.84C199.91 194.73 193.85 196.05 192.78 202.18C192.378 204.652 192.55 207.182 193.282 209.577C194.013 211.971 195.286 214.166 197 215.99C199.51 218.72 200.64 219.76 200.64 219.76L207.46 216.23Z" fill="#263238" stroke="#263238" stroke-linecap="round" stroke-linejoin="round"/>
<path d="M194.74 205.15C194.688 206.08 194.911 207.005 195.38 207.81" stroke="white" stroke-width="0.75" stroke-linecap="round" stroke-linejoin="round"/>
<path d="M220.23 189.32C220.23 189.32 218.05 184.55 223.61 184.55C229.17 184.55 229.97 191.55 224.21 194.09C218.45 196.63 205.92 197.27 199.16 200.26C197.833 200.779 196.653 201.613 195.72 202.69" stroke="white" stroke-width="0.75" stroke-linecap="round" stroke-linejoin="round"/>
<path d="M210.16 206.259C208.16 206.979 205.57 207.979 202.94 209.199C197.37 211.789 198.56 214.369 198.56 214.369" stroke="white" stroke-width="0.75" stroke-linecap="round" stroke-linejoin="round"/>
<path d="M213.87 205.03C213.87 205.03 213.38 205.17 212.55 205.44" stroke="white" stroke-width="0.75" stroke-linecap="round" stroke-linejoin="round"/>
<path d="M208.41 218.37C208.41 218.37 205.18 213.71 201.78 215.58C198.38 217.45 201.02 224.1 203.07 226.41C205.12 228.72 209.07 224.41 209.48 223.33" fill="white"/>
<mask id="mask14_444_4182" style="mask-type:luminance" maskUnits="userSpaceOnUse" x="200" y="215" width="10" height="13">
<path d="M208.41 218.369C208.41 218.369 205.18 213.709 201.78 215.579C198.38 217.449 201.02 224.099 203.07 226.409C205.12 228.719 209.07 224.409 209.48 223.329" fill="white"/>
</mask>
<g mask="url(#mask14_444_4182)">
<path d="M208.41 218.369C208.41 218.369 205.18 213.709 201.78 215.579C198.38 217.449 201.02 224.099 203.07 226.409C205.12 228.719 209.07 224.409 209.48 223.329" fill="#62CCBF"/>
<path opacity="0.5" d="M208.41 218.369C208.41 218.369 205.18 213.709 201.78 215.579C198.38 217.449 201.02 224.099 203.07 226.409C205.12 228.719 209.07 224.409 209.48 223.329" fill="white"/>
</g>
<path d="M208.41 218.37C208.41 218.37 205.18 213.71 201.78 215.58C198.38 217.45 201.02 224.1 203.07 226.41C205.12 228.72 209.07 224.41 209.48 223.33" stroke="#263238" stroke-linecap="round" stroke-linejoin="round"/>
<path d="M167.62 214.12H95.9401C93.1124 214.12 90.8201 216.413 90.8201 219.24V271.64C90.8201 274.468 93.1124 276.76 95.9401 276.76H167.62C170.448 276.76 172.74 274.468 172.74 271.64V219.24C172.74 216.413 170.448 214.12 167.62 214.12Z" fill="white" stroke="#263238" stroke-linecap="round" stroke-linejoin="round"/>
<path d="M171.18 259.18L219.18 271.68L171.18 248.18" fill="white"/>
<path d="M171.18 259.18L219.18 271.68L171.18 248.18" stroke="#263238" stroke-linecap="round" stroke-linejoin="round"/>
<path d="M116.71 220.141H97.4403V270.741H116.71V220.141Z" fill="#62CCBF" stroke="#263238" stroke-linecap="round" stroke-linejoin="round"/>
<path d="M168.49 220.141H166.08V270.741H168.49V220.141Z" fill="#62CCBF" stroke="#263238" stroke-linecap="round" stroke-linejoin="round"/>
<path d="M168.49 243.27H166.08V247.59H168.49V243.27Z" fill="#263238" stroke="#263238" stroke-linecap="round" stroke-linejoin="round"/>
<path d="M122.74 221.34H160.69" stroke="#263238" stroke-linecap="round" stroke-linejoin="round"/>
<path d="M122.74 226.76H160.69" stroke="#263238" stroke-linecap="round" stroke-linejoin="round"/>
<path d="M122.74 232.19H160.69" stroke="#263238" stroke-linecap="round" stroke-linejoin="round"/>
<path d="M122.74 237.609H160.69" stroke="#263238" stroke-linecap="round" stroke-linejoin="round"/>
<path d="M122.74 250.86H160.69" stroke="#263238" stroke-linecap="round" stroke-linejoin="round"/>
<path d="M122.74 255.679H160.69" stroke="#263238" stroke-linecap="round" stroke-linejoin="round"/>
<path d="M122.74 260.5H160.69" stroke="#263238" stroke-linecap="round" stroke-linejoin="round"/>
<path d="M122.74 270.5H160.69" stroke="#263238" stroke-linecap="round" stroke-linejoin="round"/>
<path d="M97.4403 270.731L116.72 220.141" stroke="#263238" stroke-linecap="round" stroke-linejoin="round"/>
<path d="M387.87 410.759C397.11 410.759 404.6 407.401 404.6 403.259C404.6 399.117 397.11 395.759 387.87 395.759C378.63 395.759 371.14 399.117 371.14 403.259C371.14 407.401 378.63 410.759 387.87 410.759Z" fill="#62CCBF"/>
<path opacity="0.5" d="M387.87 410.759C397.11 410.759 404.6 407.401 404.6 403.259C404.6 399.117 397.11 395.759 387.87 395.759C378.63 395.759 371.14 399.117 371.14 403.259C371.14 407.401 378.63 410.759 387.87 410.759Z" fill="white"/>
<path d="M368.3 292.28C370.09 293.06 374.47 292.96 374.47 292.96C374.47 292.96 373.53 290.09 373.47 289.96C372.47 287.96 369.47 284.63 367 284.96C366.594 285.033 366.208 285.19 365.866 285.419C365.523 285.649 365.232 285.946 365.009 286.294C364.787 286.641 364.638 287.03 364.573 287.437C364.508 287.844 364.527 288.261 364.63 288.66C365 290.34 366.77 291.61 368.3 292.28Z" fill="#263238"/>
<path d="M425.66 277.37C423.18 277.11 420.23 280.5 419.32 282.54C419.24 282.72 418.32 285.61 418.38 285.61H418.43C417.96 286.14 417.43 286.72 416.94 287.36C415.94 288.55 414.88 289.9 413.8 291.46C412.615 293.121 411.53 294.85 410.55 296.64C409.439 298.64 408.509 300.735 407.77 302.9C407.765 302.926 407.765 302.953 407.77 302.98C407.77 302.25 407.77 300.2 407.77 300.04C407.48 297.84 405.63 293.73 403.17 293.28C402.762 293.224 402.347 293.253 401.95 293.365C401.553 293.477 401.184 293.669 400.865 293.93C400.546 294.191 400.284 294.514 400.096 294.881C399.908 295.247 399.797 295.649 399.77 296.06C399.63 297.81 400.9 299.57 402.14 300.68C403.54 301.93 407.42 303.14 407.73 303.23C407.038 305.452 406.491 307.717 406.09 310.01C405.85 311.35 405.66 312.7 405.47 314.06C405.47 313.42 405.47 312.86 405.47 312.78C405.18 310.57 403.33 306.47 400.88 306.02C400.472 305.963 400.056 305.99 399.659 306.101C399.262 306.211 398.892 306.402 398.572 306.662C398.252 306.922 397.989 307.245 397.8 307.611C397.61 307.977 397.498 308.379 397.47 308.79C397.33 310.55 398.6 312.3 399.84 313.41C401.08 314.52 404.39 315.64 405.27 315.92C405.21 316.44 405.14 316.92 405.07 317.48C404.77 319.98 404.49 322.48 404.13 324.93C404 325.79 403.85 326.63 403.7 327.47C403.7 326.91 403.7 326.47 403.7 326.37C403.41 324.16 401.56 320.06 399.1 319.6C398.692 319.544 398.277 319.573 397.88 319.685C397.483 319.797 397.114 319.989 396.795 320.25C396.476 320.511 396.214 320.834 396.026 321.201C395.838 321.567 395.727 321.969 395.7 322.38C395.56 324.14 396.83 325.89 398.07 327C399.31 328.11 402.3 329.12 403.34 329.45C403.16 330.31 402.97 331.17 402.76 332C402.6 332.56 402.48 333.11 402.29 333.66C402.1 334.21 401.94 334.76 401.76 335.3C401.39 336.3 401.01 337.4 400.62 338.39C400.35 339.09 400.08 339.75 399.82 340.39C399.95 339.53 400.18 337.85 400.18 337.71C400.156 335.75 399.629 333.828 398.65 332.13C398.665 331.913 398.665 331.696 398.65 331.48C398.591 331.072 398.449 330.681 398.232 330.331C398.015 329.981 397.728 329.679 397.389 329.444C397.051 329.21 396.667 329.047 396.263 328.967C395.859 328.888 395.443 328.892 395.04 328.98C392.63 329.62 391.1 333.85 390.98 336.07C390.98 336.21 391.06 337.64 391.13 338.54C391.01 338.02 390.9 337.54 390.77 336.97C390.51 335.9 390.23 334.84 389.93 333.71C389.76 333.16 389.6 332.61 389.43 332.06C389.26 331.51 389.04 330.94 388.85 330.37C388.37 329.07 387.85 327.77 387.24 326.47C388.18 326.25 391.48 325.41 392.81 324.39C394.14 323.37 395.53 321.72 395.51 319.96C395.52 319.548 395.443 319.138 395.284 318.758C395.126 318.377 394.888 318.034 394.589 317.751C394.289 317.469 393.933 317.252 393.544 317.115C393.155 316.979 392.741 316.926 392.33 316.96C389.84 317.23 387.69 321.18 387.24 323.36C387.24 323.5 387.07 325.1 387 325.98C386.65 325.2 386.3 324.43 385.92 323.65C384.81 321.42 383.62 319.2 382.44 316.97C382.07 316.29 381.72 315.61 381.37 314.92C381.7 314.85 385.65 313.92 387.13 312.79C388.45 311.79 389.85 310.12 389.84 308.36C389.841 307.949 389.758 307.543 389.595 307.166C389.433 306.789 389.195 306.45 388.896 306.168C388.596 305.887 388.243 305.67 387.857 305.531C387.471 305.392 387.06 305.334 386.65 305.36C384.17 305.63 382.02 309.58 381.57 311.76C381.57 311.92 381.33 314.23 381.3 314.82C380.52 313.31 379.76 311.82 379.06 310.29C378.116 308.251 377.305 306.153 376.63 304.01C376.78 304.01 380.91 303.01 382.43 301.87C383.75 300.87 385.15 299.2 385.14 297.44C385.141 297.029 385.058 296.623 384.895 296.246C384.733 295.869 384.495 295.53 384.196 295.248C383.897 294.967 383.543 294.75 383.157 294.611C382.771 294.472 382.36 294.414 381.95 294.44C379.47 294.71 377.32 298.66 376.87 300.84C376.87 301.02 376.61 303.5 376.6 303.95C376.6 303.82 376.51 303.7 376.47 303.57C375.853 301.399 375.431 299.176 375.21 296.93C375.07 295.7 375.01 294.5 374.97 293.34C375.76 293.25 379.34 292.77 380.83 291.87C382.32 290.97 383.83 289.52 384.01 287.76C384.059 287.351 384.023 286.936 383.904 286.541C383.785 286.147 383.586 285.781 383.319 285.467C383.053 285.152 382.725 284.896 382.355 284.714C381.985 284.533 381.582 284.429 381.17 284.41C378.67 284.41 376.1 288.1 375.41 290.21C375.41 290.33 375.13 291.54 374.96 292.43C374.96 291.9 374.96 291.36 374.96 290.86C374.96 288.98 375.08 287.25 375.2 285.72C375.28 284.85 375.36 284.07 375.45 283.33C376.17 282.84 379.05 280.8 379.94 279.33C380.83 277.86 381.52 275.86 380.87 274.23C380.733 273.839 380.514 273.481 380.229 273.18C379.944 272.879 379.598 272.642 379.215 272.485C378.831 272.327 378.419 272.252 378.004 272.265C377.59 272.278 377.183 272.379 376.81 272.56C374.59 273.7 374.01 278.16 374.37 280.36C374.37 280.55 375.24 283.46 375.28 283.44C375.19 284.14 375.09 284.9 375 285.72C374.85 287.25 374.69 288.98 374.65 290.88C374.58 292.918 374.627 294.958 374.79 296.99C374.97 299.269 375.352 301.528 375.93 303.74C375.925 303.766 375.925 303.793 375.93 303.82C375.54 303.21 374.38 301.52 374.28 301.4C372.82 299.71 369.02 297.32 366.72 298.29C366.349 298.468 366.018 298.72 365.749 299.032C365.479 299.343 365.277 299.707 365.154 300.1C365.031 300.493 364.99 300.907 365.034 301.317C365.078 301.726 365.206 302.122 365.41 302.48C366.26 304.03 368.29 304.79 369.94 305.03C371.79 305.3 375.7 304.17 376.01 304.08C376.656 306.313 377.448 308.501 378.38 310.63C378.92 311.88 379.5 313.12 380.1 314.35C379.74 313.83 379.42 313.35 379.37 313.35C377.91 311.67 374.1 309.27 371.81 310.24C371.438 310.418 371.106 310.671 370.835 310.983C370.565 311.295 370.362 311.66 370.239 312.054C370.116 312.448 370.075 312.864 370.12 313.274C370.165 313.685 370.295 314.082 370.5 314.44C371.35 315.98 373.38 316.75 375.02 316.99C376.66 317.23 380.02 316.33 380.93 316.08C381.16 316.55 381.39 317.02 381.63 317.49C382.76 319.75 383.9 321.99 384.95 324.22C385.32 325.01 385.65 325.8 385.95 326.59C385.64 326.12 385.37 325.74 385.32 325.68C383.86 324 380.05 321.6 377.76 322.57C377.388 322.748 377.056 323.001 376.785 323.313C376.515 323.625 376.312 323.99 376.189 324.384C376.066 324.778 376.025 325.194 376.07 325.604C376.115 326.015 376.245 326.412 376.45 326.77C377.3 328.31 379.33 329.07 380.97 329.31C382.61 329.55 385.67 328.74 386.72 328.45C387.04 329.27 387.37 330.09 387.64 330.9C387.82 331.45 388.03 331.97 388.17 332.54C388.31 333.11 388.48 333.65 388.64 334.2C388.89 335.27 389.16 336.37 389.39 337.41C389.55 338.14 389.69 338.83 389.83 339.53C389.47 338.74 388.73 337.22 388.66 337.1C387.47 335.21 384.07 332.26 381.66 332.88C381.26 332.991 380.888 333.186 380.569 333.452C380.25 333.718 379.99 334.048 379.808 334.421C379.626 334.794 379.524 335.202 379.511 335.617C379.498 336.032 379.572 336.446 379.73 336.83C380.33 338.48 382.22 339.54 383.81 340.03C385.57 340.56 389.45 340.03 389.93 340.03C390.16 341.19 390.38 342.32 390.56 343.39C391.22 347.09 391.62 350.2 391.87 352.39C391.87 352.78 391.95 353.12 391.99 353.45H384.48L386.89 400.55C386.98 402.274 387.728 403.899 388.98 405.088C390.233 406.277 391.893 406.94 393.62 406.94C395.346 406.939 397.006 406.276 398.256 405.087C399.507 403.898 400.253 402.273 400.34 400.55L402.76 353.45H395.76C395.81 353.34 395.86 353.24 395.92 353.13C396.92 351.13 398.21 348.25 399.65 344.74C400.1 343.63 400.57 342.43 401.03 341.2C401.5 341.3 405.34 342.08 407.13 341.67C408.76 341.31 410.72 340.39 411.45 338.79C411.628 338.417 411.727 338.011 411.74 337.598C411.754 337.184 411.682 336.773 411.529 336.389C411.376 336.005 411.145 335.656 410.851 335.366C410.557 335.075 410.206 334.848 409.82 334.7C407.45 333.91 403.82 336.6 402.52 338.39C402.44 338.49 401.73 339.74 401.29 340.53C401.47 340.02 401.66 339.53 401.85 339.01C402.23 338.01 402.57 336.95 402.95 335.83C403.11 335.29 403.28 334.74 403.44 334.18C403.6 333.62 403.74 333.03 403.89 332.45C404.21 331.1 404.47 329.72 404.7 328.32C405.6 328.65 408.82 329.77 410.49 329.65C412.16 329.53 414.23 328.92 415.19 327.45C415.421 327.108 415.578 326.722 415.652 326.316C415.727 325.91 415.717 325.494 415.623 325.092C415.529 324.69 415.353 324.312 415.107 323.982C414.86 323.651 414.548 323.375 414.19 323.17C411.97 322.02 408 324.17 406.42 325.7C406.32 325.8 405.31 327.06 404.77 327.76C404.91 326.91 405.04 326.07 405.15 325.22C405.46 322.74 405.69 320.22 405.93 317.72L406.17 315.43C406.49 315.55 410.29 316.96 412.17 316.83C413.83 316.71 415.91 316.1 416.87 314.63C417.101 314.288 417.258 313.902 417.332 313.496C417.407 313.09 417.397 312.674 417.303 312.272C417.209 311.87 417.033 311.492 416.787 311.162C416.54 310.831 416.228 310.555 415.87 310.35C413.65 309.2 409.67 311.35 408.1 312.88C407.98 313 406.53 314.81 406.19 315.29C406.36 313.6 406.56 311.92 406.82 310.29C407.156 308.065 407.633 305.864 408.25 303.7C408.4 303.76 412.36 305.25 414.25 305.11C415.91 305 417.99 304.39 418.95 302.91C419.181 302.568 419.338 302.182 419.412 301.776C419.487 301.37 419.477 300.954 419.383 300.552C419.289 300.15 419.113 299.772 418.867 299.442C418.62 299.111 418.308 298.835 417.95 298.63C415.73 297.49 411.76 299.63 410.18 301.17C410.06 301.29 408.5 303.24 408.25 303.61C408.25 303.49 408.31 303.35 408.35 303.23C409.032 301.076 409.906 298.988 410.96 296.99C411.52 295.88 412.13 294.85 412.74 293.87C413.45 294.22 416.74 295.8 418.44 295.87C420.14 295.94 422.23 295.56 423.35 294.2C423.619 293.886 423.819 293.52 423.939 293.125C424.06 292.729 424.097 292.314 424.049 291.904C424.001 291.493 423.869 291.097 423.661 290.741C423.453 290.384 423.174 290.074 422.84 289.83C420.76 288.45 416.58 290.11 414.84 291.5C414.75 291.58 413.84 292.5 413.24 293.1L414.08 291.77C415.13 290.2 416.18 288.83 417.08 287.62C417.62 286.93 418.13 286.33 418.6 285.76C419.48 285.76 423.01 285.64 424.55 284.92C426.09 284.2 427.78 282.92 428.15 281.17C428.269 280.755 428.297 280.32 428.232 279.894C428.168 279.468 428.012 279.06 427.776 278.7C427.539 278.339 427.228 278.034 426.863 277.804C426.498 277.575 426.088 277.426 425.66 277.37ZM398.19 344.01C396.69 347.46 395.31 350.28 394.32 352.23L393.78 353.3H393.61C393.56 352.92 393.51 352.5 393.44 352.03C393.14 349.83 392.67 346.7 391.93 343.03C391.69 341.85 391.42 340.59 391.13 339.31C392.298 338.838 393.44 338.304 394.55 337.71C396.058 339.006 397.741 340.084 399.55 340.91C399.07 341.96 398.63 343.02 398.19 344.01Z" fill="#263238"/>
<path d="M412.59 293.239C412.59 293.239 413.38 290.329 413.41 290.139C413.72 287.929 413.01 283.489 410.77 282.399C410.392 282.24 409.985 282.16 409.575 282.164C409.164 282.168 408.759 282.256 408.384 282.423C408.009 282.59 407.673 282.832 407.395 283.134C407.117 283.436 406.905 283.792 406.77 284.179C406.17 285.839 406.93 287.869 407.84 289.269C408.88 290.909 412.58 293.239 412.59 293.239Z" fill="#263238"/>
</svg>
